<svg width="45" height="45" viewBox="0 0 45 45" fill="none" xmlns="http://www.w3.org/2000/svg">
<path d="M5.70082 0.00435677C5.65934 0.0118922 5.61787 0.0231938 5.58016 0.0344964C5.13149 0.136218 4.81478 0.539335 4.82609 0.998964V9.67917H13.513C13.8599 9.68294 14.1842 9.5021 14.3614 9.20071C14.5348 8.89931 14.5348 8.5301 14.3614 8.2287C14.1842 7.92731 13.8599 7.74647 13.513 7.75024H8.02337C11.6806 4.17493 16.6764 1.96343 22.2 1.96343C33.4056 1.96343 42.4696 11.0204 42.4696 22.2172C42.4696 33.4141 33.4056 42.4711 22.2 42.4711C10.9944 42.4711 1.93043 33.4141 1.93043 22.2172C1.93043 18.868 2.75615 15.7146 4.19266 12.9342L2.47337 12.0602C0.897351 15.1043 0 18.5591 0 22.2172C0 34.4577 9.95003 44.4 22.2 44.4C34.45 44.4 44.4 34.4577 44.4 22.2172C44.4 9.9768 34.45 0.0344964 22.2 0.0344964C16.19 0.0344964 10.7531 2.44943 6.75652 6.33367V0.998964C6.76783 0.720173 6.65472 0.452684 6.45489 0.264311C6.25129 0.0721714 5.97605 -0.0220156 5.70082 0.00435677ZM22.2 2.9279C21.6684 2.9279 21.2348 3.36116 21.2348 3.89237C21.2348 4.42358 21.6684 4.85683 22.2 4.85683C22.7316 4.85683 23.1652 4.42358 23.1652 3.89237C23.1652 3.36116 22.7316 2.9279 22.2 2.9279ZM31.3696 5.36921C30.8379 5.36921 30.4043 5.80246 30.4043 6.33367C30.4043 6.86489 30.8379 7.29814 31.3696 7.29814C31.9012 7.29814 32.3348 6.86489 32.3348 6.33367C32.3348 5.80246 31.9012 5.36921 31.3696 5.36921ZM38.0959 12.0903C37.5643 12.0903 37.1307 12.5236 37.1307 13.0548C37.1307 13.586 37.5643 14.0193 38.0959 14.0193C38.6275 14.0193 39.0611 13.586 39.0611 13.0548C39.0611 12.5236 38.6275 12.0903 38.0959 12.0903ZM15.8054 14.4111C13.1285 14.4111 11.2207 16.1554 11.2207 18.6608V18.6909H13.2114V18.6608C13.2114 17.2103 14.2143 16.2496 15.7149 16.2496C17.1175 16.2496 18.1883 17.1764 18.1883 18.4197C18.1883 19.418 17.7472 20.1414 15.9261 22.0364L11.3413 26.7985V28.3356H20.5109V26.4368H14.2671V26.2861L17.3136 23.2119C19.5947 20.9062 20.2696 19.7383 20.2696 18.2991C20.2696 16.0575 18.3881 14.4111 15.8054 14.4111ZM28.5644 14.7426C26.14 18.3707 24.1116 21.5316 22.8938 23.7544V25.7134H29.5296V28.3356H31.5505V25.7134H33.4508V23.8146H31.5505V14.7426H28.5644ZM29.4391 16.6113H29.5598V23.8749H24.9147V23.7242C26.5171 20.9439 28.0931 18.5591 29.4391 16.6113ZM3.86087 21.2528C3.32925 21.2528 2.89565 21.686 2.89565 22.2172C2.89565 22.7485 3.32925 23.1817 3.86087 23.1817C4.39249 23.1817 4.82609 22.7485 4.82609 22.2172C4.82609 21.686 4.39249 21.2528 3.86087 21.2528ZM40.5391 21.2528C40.0075 21.2528 39.5739 21.686 39.5739 22.2172C39.5739 22.7485 40.0075 23.1817 40.5391 23.1817C41.0708 23.1817 41.5043 22.7485 41.5043 22.2172C41.5043 21.686 41.0708 21.2528 40.5391 21.2528ZM6.30408 30.4152C5.77245 30.4152 5.33886 30.8485 5.33886 31.3797C5.33886 31.9109 5.77245 32.3442 6.30408 32.3442C6.8357 32.3442 7.26929 31.9109 7.26929 31.3797C7.26929 30.8485 6.8357 30.4152 6.30408 30.4152ZM38.0959 30.4152C37.5643 30.4152 37.1307 30.8485 37.1307 31.3797C37.1307 31.9109 37.5643 32.3442 38.0959 32.3442C38.6275 32.3442 39.0611 31.9109 39.0611 31.3797C39.0611 30.8485 38.6275 30.4152 38.0959 30.4152ZM13.0304 37.1364C12.4988 37.1364 12.0652 37.5696 12.0652 38.1008C12.0652 38.632 12.4988 39.0653 13.0304 39.0653C13.5621 39.0653 13.9957 38.632 13.9957 38.1008C13.9957 37.5696 13.5621 37.1364 13.0304 37.1364ZM31.3696 37.1364C30.8379 37.1364 30.4043 37.5696 30.4043 38.1008C30.4043 38.632 30.8379 39.0653 31.3696 39.0653C31.9012 39.0653 32.3348 38.632 32.3348 38.1008C32.3348 37.5696 31.9012 37.1364 31.3696 37.1364ZM22.2 39.5777C21.6684 39.5777 21.2348 40.0109 21.2348 40.5421C21.2348 41.0733 21.6684 41.5066 22.2 41.5066C22.7316 41.5066 23.1652 41.0733 23.1652 40.5421C23.1652 40.0109 22.7316 39.5777 22.2 39.5777Z" fill="#17A803"/>
</svg>
