<svg width="22" height="23" viewBox="0 0 22 23" fill="none" xmlns="http://www.w3.org/2000/svg">
<path d="M1.55887 0C0.69915 0 0 0.705911 0 1.56691V8.2021C0 9.06291 0.69915 9.769 1.55887 9.769H8.17807C9.03779 9.769 9.74498 9.06291 9.74498 8.2021V1.56691C9.74498 0.706093 9.03783 0 8.17807 0H1.55887ZM1.55887 0.511583H8.17807C8.75749 0.511583 9.23339 0.984794 9.23339 1.56691V8.2021C9.23339 8.78416 8.75767 9.25742 8.17807 9.25742H1.55887C0.97945 9.25742 0.511583 8.78421 0.511583 8.2021V1.56691C0.511583 0.98484 0.97945 0.511583 1.55887 0.511583Z" fill="black"/>
<path d="M13.813 0C12.9549 0 12.2461 0.70486 12.2461 1.56691V8.2021C12.2461 9.06396 12.9549 9.769 13.813 9.769H20.4322C21.2901 9.769 21.9991 9.06309 21.9991 8.2021V1.56691C21.9991 0.705911 21.2901 0 20.4322 0H13.813ZM13.813 0.511583H20.4322C21.0091 0.511583 21.4875 0.984474 21.4875 1.56691V8.2021C21.4875 8.78453 21.0093 9.25742 20.4322 9.25742H13.813C13.2355 9.25742 12.7577 8.78471 12.7577 8.2021V1.56691C12.7577 0.984474 13.2355 0.511583 13.813 0.511583Z" fill="black"/>
<path d="M1.55887 12.2246C0.698054 12.2246 0 12.9321 0 13.7915V20.4267C0 21.2859 0.698054 22.0017 1.55887 22.0017H8.17807C9.03888 22.0017 9.74498 21.2861 9.74498 20.4267V13.7915C9.74498 12.9323 9.03888 12.2246 8.17807 12.2246H1.55887ZM1.55887 12.7362H8.17807C8.75799 12.7362 9.23339 13.2114 9.23339 13.7915V20.4267C9.23339 21.0066 8.75822 21.4898 8.17807 21.4898H1.55887C0.978947 21.4898 0.511583 21.0066 0.511583 20.4267V13.7915C0.511583 13.2116 0.978902 12.7362 1.55887 12.7362Z" fill="black"/>
<path d="M13.813 12.2246C12.9538 12.2246 12.2461 12.9311 12.2461 13.7915V20.4267C12.2461 21.2872 12.9536 22.0017 13.813 22.0017H20.4322C21.2912 22.0017 21.9991 21.2863 21.9991 20.4267V13.7915C21.9991 12.9322 21.2912 12.2246 20.4322 12.2246H13.813ZM13.813 12.7362H20.4322C21.0097 12.7362 21.4875 13.211 21.4875 13.7915V20.4267C21.4875 21.0072 21.0098 21.4898 20.4322 21.4898H13.813C13.235 21.4898 12.7577 21.0072 12.7577 20.4267V13.7915C12.7577 13.211 13.235 12.7362 13.813 12.7362Z" fill="black"/>
</svg>
