<svg width="42" height="45" viewBox="0 0 42 45" fill="none" xmlns="http://www.w3.org/2000/svg">
<path d="M11.7628 18.2852H6.51784C6.07243 18.2852 5.71191 18.6457 5.71191 19.0911V24.3361C5.71191 24.781 6.07243 25.142 6.51784 25.142H11.7628C12.2082 25.142 12.5688 24.781 12.5688 24.3361V19.0911C12.5688 18.6462 12.2082 18.2852 11.7628 18.2852ZM10.9569 23.5301H7.32377V19.897H10.9569V23.5301Z" fill="#17A803"/>
<path d="M23.1935 18.2852H17.9485C17.5031 18.2852 17.1426 18.6457 17.1426 19.0911V24.3361C17.1426 24.781 17.5031 25.142 17.9485 25.142H23.1935C23.6384 25.142 23.9994 24.781 23.9994 24.3361V19.0911C23.9994 18.6462 23.6384 18.2852 23.1935 18.2852ZM22.3876 23.5301H18.7544V19.897H22.3876V23.5301Z" fill="#17A803"/>
<path d="M34.6242 18.2852H29.3792C28.9343 18.2852 28.5732 18.6457 28.5732 19.0911V24.3361C28.5732 24.781 28.9343 25.142 29.3792 25.142H34.6242C35.069 25.142 35.4301 24.781 35.4301 24.3361V19.0911C35.4301 18.6462 35.069 18.2852 34.6242 18.2852ZM33.8182 23.5301H30.1851V19.897H33.8182V23.5301Z" fill="#17A803"/>
<path d="M11.7628 29.7129H6.51784C6.07243 29.7129 5.71191 30.0739 5.71191 30.5188V35.7638C5.71191 36.2087 6.07243 36.5697 6.51784 36.5697H11.7628C12.2082 36.5697 12.5688 36.2087 12.5688 35.7638V30.5188C12.5688 30.0739 12.2082 29.7129 11.7628 29.7129ZM10.9569 34.9579H7.32377V31.3248H10.9569V34.9579Z" fill="#17A803"/>
<path d="M23.1935 29.7129H17.9485C17.5031 29.7129 17.1426 30.0739 17.1426 30.5188V35.7638C17.1426 36.2087 17.5031 36.5697 17.9485 36.5697H23.1935C23.6384 36.5697 23.9994 36.2087 23.9994 35.7638V30.5188C23.9994 30.0739 23.6384 29.7129 23.1935 29.7129ZM22.3876 34.9579H18.7544V31.3248H22.3876V34.9579Z" fill="#17A803"/>
<path d="M34.6242 29.7129H29.3792C28.9343 29.7129 28.5732 30.0739 28.5732 30.5188V35.7638C28.5732 36.2087 28.9343 36.5697 29.3792 36.5697H34.6242C35.069 36.5697 35.4301 36.2087 35.4301 35.7638V30.5188C35.4301 30.0739 35.069 29.7129 34.6242 29.7129ZM33.8182 34.9579H30.1851V31.3248H33.8182V34.9579Z" fill="#17A803"/>
<path d="M40.3769 3.98113H35.3292C35.3226 3.98113 35.3169 3.98264 35.3103 3.98314V2.97881C35.3103 1.33609 33.9561 0 32.291 0C30.6259 0 29.2717 1.33659 29.2717 2.97881V3.98113H23.584V2.97881C23.584 1.33609 22.2298 0 20.5647 0C18.8996 0 17.5454 1.33659 17.5454 2.97881V3.98113H11.8572V2.97881C11.8572 1.33609 10.503 0 8.8379 0C7.17283 0 5.81856 1.33659 5.81856 2.97881V3.98163C5.81602 3.98163 5.81347 3.98113 5.81092 3.98113H0.76426C0.341879 3.98113 0 4.31842 0 4.73513V43.8155C0 44.2317 0.341879 44.5695 0.76426 44.5695H40.3769C40.7987 44.5695 41.1411 44.2317 41.1411 43.8155V4.73513C41.1411 4.31842 40.7987 3.98113 40.3769 3.98113ZM30.8002 2.97881C30.8002 2.1675 31.4686 1.508 32.291 1.508C33.1133 1.508 33.7818 2.1675 33.7818 2.97881V7.13939C33.7818 7.95019 33.1133 8.6102 32.291 8.6102C31.4686 8.6102 30.8002 7.9507 30.8002 7.13939V2.97881ZM20.5647 1.508C21.3865 1.508 22.0555 2.1675 22.0555 2.97881V7.13939C22.0555 7.95019 21.387 8.6102 20.5647 8.6102C19.7424 8.6102 19.0739 7.9507 19.0739 7.13939V4.8055C19.0759 4.78188 19.081 4.75926 19.081 4.73463C19.081 4.71 19.0759 4.68738 19.0739 4.66375V2.97881C19.0739 2.1675 19.7424 1.508 20.5647 1.508ZM7.34708 2.97881C7.34708 2.1675 8.01556 1.508 8.8379 1.508C9.65973 1.508 10.3287 2.1675 10.3287 2.97881V7.13939C10.3287 7.95019 9.66024 8.6102 8.8379 8.6102C8.01556 8.6102 7.34708 7.9507 7.34708 7.13939V2.97881ZM39.6126 43.0615H1.52852V5.48913H5.81092C5.81347 5.48913 5.81602 5.48863 5.81856 5.48863V7.13989C5.81856 8.78261 7.17334 10.1187 8.8379 10.1187C10.5025 10.1187 11.8572 8.78261 11.8572 7.13989V5.48963H17.5454V7.13989C17.5454 8.78261 18.9001 10.1187 20.5647 10.1187C22.2293 10.1187 23.584 8.78261 23.584 7.13989V5.48963H29.2717V7.13989C29.2717 8.78261 30.6259 10.1187 32.291 10.1187C33.9561 10.1187 35.3103 8.78261 35.3103 7.13989V5.48712C35.3169 5.48712 35.3226 5.48913 35.3292 5.48913H39.6126V43.0615Z" fill="#17A803"/>
</svg>
