<svg width="26" height="29" viewBox="0 0 26 29" fill="none" xmlns="http://www.w3.org/2000/svg">
<path d="M19.5974 7.26021H23.8456C24.1026 7.26046 24.3503 7.35608 24.5408 7.52854C24.7312 7.70099 24.8509 7.93801 24.8766 8.19366L25.5093 14.5204H23.4225L22.9039 9.33455H19.5974V12.4461C19.5974 12.7211 19.4881 12.985 19.2936 13.1795C19.0991 13.374 18.8353 13.4832 18.5602 13.4832C18.2851 13.4832 18.0213 13.374 17.8268 13.1795C17.6323 12.985 17.523 12.7211 17.523 12.4461V9.33455H9.22566V12.4461C9.22566 12.7211 9.11639 12.985 8.92188 13.1795C8.72738 13.374 8.46357 13.4832 8.18849 13.4832C7.91342 13.4832 7.64961 13.374 7.4551 13.1795C7.26059 12.985 7.15132 12.7211 7.15132 12.4461V9.33455H3.84274L2.18326 25.9293H13.3744V28.0037H1.03615C0.891285 28.0035 0.748057 27.973 0.615693 27.9142C0.48333 27.8553 0.364766 27.7693 0.267642 27.6619C0.170517 27.5544 0.0969847 27.4277 0.0517831 27.2901C0.00658145 27.1525 -0.00928748 27.0069 0.00519901 26.8628L1.87211 8.19366C1.8978 7.93801 2.01748 7.70099 2.20795 7.52854C2.39842 7.35608 2.64612 7.26046 2.90306 7.26021H7.15132V6.53626C7.15132 2.93935 9.92264 0 13.3744 0C16.8261 0 19.5974 2.93935 19.5974 6.53626V7.26228V7.26021ZM17.523 7.26021V6.53626C17.523 4.05949 15.652 2.07435 13.3744 2.07435C11.0967 2.07435 9.22566 4.05949 9.22566 6.53626V7.26228H17.523V7.26021ZM24.051 22.6933C24.1456 22.5904 24.2601 22.5076 24.3875 22.4501C24.5149 22.3925 24.6526 22.3612 24.7924 22.3583C24.9322 22.3553 25.0712 22.3806 25.2009 22.4326C25.3307 22.4847 25.4486 22.5625 25.5475 22.6613C25.6465 22.7601 25.7244 22.8779 25.7766 23.0075C25.8289 23.1372 25.8544 23.2761 25.8516 23.4159C25.8488 23.5557 25.8178 23.6935 25.7604 23.821C25.703 23.9485 25.6204 24.0631 25.5176 24.1578L21.3689 28.3065C21.1744 28.501 20.9106 28.6102 20.6356 28.6102C20.3606 28.6102 20.0968 28.501 19.9023 28.3065L15.7536 24.1578C15.6546 24.0621 15.5756 23.9477 15.5212 23.8212C15.4668 23.6946 15.4382 23.5585 15.437 23.4208C15.4358 23.2831 15.4621 23.1465 15.5142 23.0191C15.5664 22.8916 15.6434 22.7758 15.7408 22.6784C15.8382 22.581 15.954 22.504 16.0814 22.4519C16.2089 22.3997 16.3455 22.3735 16.4832 22.3747C16.6209 22.3759 16.757 22.4045 16.8835 22.4588C17.0101 22.5132 17.1245 22.5922 17.2202 22.6913L19.5974 25.0705V17.6319C19.5974 17.3569 19.7067 17.093 19.9012 16.8985C20.0957 16.704 20.3595 16.5948 20.6346 16.5948C20.9096 16.5948 21.1734 16.704 21.368 16.8985C21.5625 17.093 21.6717 17.3569 21.6717 17.6319V25.0705L24.051 22.6913V22.6933Z" fill="#17A803"/>
</svg>
