<svg width="26" height="27" viewBox="0 0 26 27" fill="none" xmlns="http://www.w3.org/2000/svg">
<g clip-path="url(#clip0_2769_12037)">
<path d="M13.0054 4.80469C6.12423 4.80469 0.525391 10.6189 0.525391 17.7647C0.525391 24.9105 6.12423 30.7247 13.0054 30.7247C19.8866 30.7247 25.4854 24.9105 25.4854 17.7647C25.4854 10.6189 19.8866 4.80469 13.0054 4.80469ZM13.0054 29.6447C6.69727 29.6447 1.56539 24.3154 1.56539 17.7647C1.56539 11.2139 6.69727 5.88469 13.0054 5.88469C19.3135 5.88469 24.4454 11.2139 24.4454 17.7647C24.4454 24.3154 19.3135 29.6447 13.0054 29.6447Z" fill="black"/>
<path d="M11.9642 11.2835H14.0442C15.4779 11.2835 16.6442 12.4947 16.6442 13.9835H17.6842C17.6842 11.8991 16.0509 10.2035 14.0442 10.2035H13.5242V8.5835H12.4842V10.2035H11.9642C9.95754 10.2035 8.32422 11.8991 8.32422 13.9835V14.5235C8.32422 16.6079 9.95754 18.3035 11.9642 18.3035H14.0442C15.4779 18.3035 16.6442 19.5147 16.6442 21.0035V21.5435C16.6442 23.0323 15.4779 24.2435 14.0442 24.2435H11.9642C10.5306 24.2435 9.36422 23.0323 9.36422 21.5435H8.32422C8.32422 23.6279 9.95754 25.3235 11.9642 25.3235H12.4842V26.9435H13.5242V25.3235H14.0442C16.0509 25.3235 17.6842 23.6279 17.6842 21.5435V21.0035C17.6842 18.9191 16.0509 17.2235 14.0442 17.2235H11.9642C10.5306 17.2235 9.36422 16.0123 9.36422 14.5235V13.9835C9.36422 12.4947 10.5306 11.2835 11.9642 11.2835Z" fill="black"/>
</g>
<defs>
<clipPath id="clip0_2769_12037">
<rect width="26" height="27" fill="white"/>
</clipPath>
</defs>
</svg>
