<svg width="25" height="33" viewBox="0 0 25 33" fill="none" xmlns="http://www.w3.org/2000/svg">
<path d="M24.4565 31.8696H23.913V21.6957C23.913 21.5457 23.8558 21.402 23.7539 21.296C23.6519 21.19 23.5137 21.1304 23.3696 21.1304C23.2254 21.1304 23.0872 21.19 22.9853 21.296C22.8833 21.402 22.8261 21.5457 22.8261 21.6957V31.8696H19.5652V12.087C19.5652 11.7871 19.6797 11.4996 19.8836 11.2876C20.0874 11.0756 20.3639 10.9565 20.6522 10.9565H21.7391C22.0274 10.9565 22.3039 11.0756 22.5077 11.2876C22.7116 11.4996 22.8261 11.7871 22.8261 12.087V12.6522C22.8261 12.8021 22.8833 12.9458 22.9853 13.0518C23.0872 13.1578 23.2254 13.2174 23.3696 13.2174C23.5137 13.2174 23.6519 13.1578 23.7539 13.0518C23.8558 12.9458 23.913 12.8021 23.913 12.6522V12.087C23.913 11.4873 23.684 10.9123 23.2763 10.4883C22.8686 10.0643 22.3157 9.82609 21.7391 9.82609H20.6522C20.0756 9.82609 19.5227 10.0643 19.115 10.4883C18.7073 10.9123 18.4783 11.4873 18.4783 12.087V31.8696H16.3043V17.7391C16.3043 17.4422 16.2481 17.1482 16.1389 16.8739C16.0296 16.5996 15.8695 16.3504 15.6676 16.1405C15.4658 15.9305 15.2261 15.764 14.9624 15.6504C14.6986 15.5367 14.4159 15.4783 14.1304 15.4783H13.0435C12.758 15.4783 12.4753 15.5367 12.2116 15.6504C11.9478 15.764 11.7082 15.9305 11.5063 16.1405C11.3044 16.3504 11.1443 16.5996 11.035 16.8739C10.9258 17.1482 10.8696 17.4422 10.8696 17.7391V31.8696H8.69565V23.3913C8.69565 23.0944 8.63942 22.8004 8.53017 22.5261C8.42092 22.2518 8.26079 22.0026 8.05893 21.7926C7.85706 21.5827 7.61741 21.4162 7.35366 21.3025C7.08991 21.1889 6.80722 21.1304 6.52174 21.1304H5.43478C5.1493 21.1304 4.86661 21.1889 4.60286 21.3025C4.33911 21.4162 4.09946 21.5827 3.89759 21.7926C3.69573 22.0026 3.5356 22.2518 3.42635 22.5261C3.3171 22.8004 3.26087 23.0944 3.26087 23.3913V31.8696H1.08696V7.56522C1.08696 7.41531 1.0297 7.27155 0.927775 7.16555C0.825853 7.05955 0.687618 7 0.543478 7C0.399339 7 0.261103 7.05955 0.159181 7.16555C0.0572592 7.27155 0 7.41531 0 7.56522V32.4348C-3.3455e-09 32.509 0.0140575 32.5825 0.0413698 32.6511C0.0686822 32.7197 0.108715 32.782 0.159181 32.8345C0.209648 32.8869 0.26956 32.9286 0.335498 32.957C0.401436 32.9854 0.472108 33 0.543478 33H24.4565C24.6007 33 24.7389 32.9405 24.8408 32.8345C24.9427 32.7285 25 32.5847 25 32.4348C25 32.2849 24.9427 32.1411 24.8408 32.0351C24.7389 31.9291 24.6007 31.8696 24.4565 31.8696ZM7.6087 31.8696H4.34783V23.3913C4.34783 23.0915 4.46234 22.804 4.66619 22.592C4.87003 22.38 5.1465 22.2609 5.43478 22.2609H6.52174C6.66448 22.2609 6.80582 22.2901 6.9377 22.3469C7.06957 22.4037 7.1894 22.487 7.29033 22.592C7.39127 22.6969 7.47133 22.8216 7.52596 22.9587C7.58058 23.0959 7.6087 23.2429 7.6087 23.3913V31.8696ZM15.2174 31.8696H11.9565V17.7391C11.9565 17.4393 12.071 17.1518 12.2749 16.9398C12.4787 16.7278 12.7552 16.6087 13.0435 16.6087H14.1304C14.2732 16.6087 14.4145 16.6379 14.5464 16.6947C14.6783 16.7516 14.7981 16.8348 14.899 16.9398C15 17.0448 15.08 17.1694 15.1347 17.3065C15.1893 17.4437 15.2174 17.5907 15.2174 17.7391V31.8696Z" fill="black"/>
<path d="M2.50001 2.00555C2.43435 2.00555 2.36933 2.01846 2.30867 2.04354C2.24801 2.06862 2.19289 2.10538 2.14646 2.15172C2.10003 2.19807 2.0632 2.25308 2.03808 2.31363C2.01295 2.37419 2.00002 2.43908 2.00002 2.50462V4.50092C2.00002 4.63329 2.05269 4.76023 2.14646 4.85382C2.24023 4.94742 2.3674 5 2.50001 5C2.63261 5 2.75979 4.94742 2.85356 4.85382C2.94732 4.76023 3 4.63329 3 4.50092V2.50462C3 2.37226 2.94732 2.24532 2.85356 2.15172C2.75979 2.05813 2.63261 2.00555 2.50001 2.00555ZM2.96 0.318671C2.93468 0.258191 2.89917 0.202487 2.855 0.153976L2.78 0.0940869C2.75213 0.0751987 2.72187 0.0600937 2.69 0.0491698L2.60001 0.00924377C2.50251 -0.0097518 2.40155 0.000672946 2.31001 0.0391883C2.24796 0.0616028 2.19162 0.0973641 2.14496 0.143937C2.0983 0.190511 2.06247 0.246756 2.04002 0.30869C2.01308 0.371783 1.99947 0.43974 2.00002 0.50832C1.99964 0.574001 2.01225 0.639112 2.03713 0.699918C2.06201 0.760724 2.09867 0.81603 2.14501 0.862663C2.19257 0.908099 2.24864 0.943716 2.31001 0.967469C2.37012 0.993043 2.43467 1.00661 2.50001 1.0074C2.56581 1.00778 2.63104 0.995186 2.69196 0.970349C2.75288 0.945513 2.80828 0.908918 2.855 0.862663C2.94637 0.767024 2.99816 0.640458 3 0.50832C2.99921 0.443102 2.98562 0.378671 2.96 0.318671Z" fill="black"/>
</svg>
