<svg width="23" height="24" viewBox="0 0 23 24" fill="none" xmlns="http://www.w3.org/2000/svg">
<path d="M21.826 10.2039H18.723C18.4137 10.2039 18.1434 9.99474 18.0484 9.68981C17.9515 9.37852 17.8339 9.07469 17.6964 8.78055C17.5648 8.49715 17.6168 8.15782 17.8317 7.93277L20.0185 5.6511C20.1028 5.56307 20.1028 5.42039 20.0187 5.33252L17.8893 3.11079C17.8053 3.023 17.6687 3.023 17.5845 3.11094L15.4054 5.3848C15.1893 5.61026 14.8616 5.66402 14.589 5.524C14.3055 5.37797 14.0124 5.25303 13.7119 5.15013C13.4207 5.05079 13.2213 4.76871 13.2213 4.44681V1.2251C13.2213 1.1654 13.1986 1.10815 13.1581 1.06594C13.1177 1.02373 13.0628 1.00001 13.0056 1H9.99448C9.93727 1.00001 9.8824 1.02373 9.84195 1.06594C9.80149 1.10815 9.77876 1.1654 9.77876 1.2251V4.51944C9.77876 4.83399 9.58833 5.11141 9.30687 5.21619C9.024 5.32208 8.75101 5.44583 8.48966 5.5868C8.21543 5.73467 7.88072 5.68328 7.66102 5.45403L5.41556 3.11094C5.39555 3.09003 5.37177 3.07343 5.34561 3.06211C5.31944 3.05079 5.29139 3.04497 5.26307 3.04497C5.23474 3.04497 5.20669 3.0508 5.18053 3.06213C5.15436 3.07345 5.1306 3.09005 5.11058 3.11097L2.98138 5.3325C2.96133 5.3534 2.94542 5.37822 2.93456 5.40554C2.92371 5.43287 2.91812 5.46215 2.91812 5.49173C2.91812 5.52131 2.92371 5.55059 2.93456 5.57791C2.94542 5.60524 2.96133 5.63006 2.98138 5.65096L5.30283 8.07335C5.51497 8.29398 5.56932 8.62757 5.44467 8.90912C5.33253 9.16293 5.235 9.4235 5.1526 9.68944C5.05778 9.99444 4.78687 10.2039 4.47735 10.2039H1.17412C1.11691 10.2039 1.06205 10.2276 1.02159 10.2698C0.981138 10.312 0.958409 10.3693 0.958403 10.429V13.5708C0.958409 13.6305 0.981138 13.6877 1.02159 13.7299C1.06205 13.7721 1.11691 13.7959 1.17412 13.7959H4.56205C4.86272 13.7959 5.12787 13.9935 5.22963 14.2862C5.31313 14.5265 5.40922 14.7617 5.51745 14.9909C5.65089 15.2753 5.59939 15.6172 5.38323 15.8428L2.98124 18.3492C2.89708 18.4369 2.89708 18.5793 2.98136 18.6672L5.11075 20.889C5.19484 20.9768 5.33124 20.9768 5.41556 20.8888L7.82562 18.374C8.04122 18.1497 8.36784 18.0953 8.63938 18.2337C8.85697 18.3442 9.08013 18.4423 9.30787 18.5277C9.58887 18.6337 9.77878 18.9104 9.77878 19.2247V22.7749C9.77879 22.8346 9.80152 22.8918 9.84197 22.9341C9.88242 22.9763 9.93729 23 9.9945 23H13.0056C13.0628 23 13.1177 22.9763 13.1581 22.9341C13.1986 22.8918 13.2213 22.8346 13.2213 22.7749V19.2975C13.2213 18.9753 13.4209 18.6932 13.7122 18.5936C13.9599 18.5089 14.2027 18.4093 14.4394 18.2955C14.7093 18.1654 15.0286 18.222 15.2402 18.4428L17.5847 20.889C17.6688 20.9768 17.8053 20.9768 17.8895 20.8888L20.0186 18.6674C20.1028 18.5794 20.1028 18.4369 20.0187 18.3491L17.7504 15.9821C17.5313 15.7527 17.4821 15.4038 17.6236 15.1181C17.7553 14.8518 17.8713 14.574 17.9715 14.2855C18.0734 13.9931 18.3382 13.7959 18.6385 13.7959H21.826C21.8832 13.7959 21.938 13.7722 21.9785 13.73C22.019 13.6877 22.0417 13.6305 22.0417 13.5708V10.429C22.0417 10.3693 22.019 10.312 21.9785 10.2698C21.938 10.2276 21.8832 10.2039 21.826 10.2039L21.826 10.2039ZM21.826 9.20387C22.4743 9.20387 23 9.75238 23 10.429V13.5708C23 14.2474 22.4743 14.7959 21.826 14.7959H18.8116C18.7345 15.0037 18.6492 15.208 18.5559 15.4085L20.6963 17.6419C21.1546 18.1202 21.1546 18.8957 20.6963 19.3744L18.5672 21.5957C18.1088 22.0745 17.3651 22.0745 16.9068 21.5959L14.6841 19.2767C14.5183 19.3519 14.35 19.4209 14.1796 19.4838V22.7749C14.1796 23.4515 13.6539 24 13.0055 24H9.9944C9.34601 24 8.82035 23.4515 8.82035 22.7749V19.4053C8.6712 19.3454 8.52387 19.2806 8.3786 19.2111L6.09313 21.5959C5.63453 22.0745 4.89112 22.0745 4.43292 21.5959L2.30367 19.3744C1.84507 18.8958 1.84507 18.1201 2.30367 17.6419L4.581 15.2656C4.51232 15.1112 4.44841 14.9545 4.38935 14.7959H1.17405C0.525656 14.7959 0 14.2474 0 13.5708V10.429C0 9.75238 0.525656 9.20387 1.17405 9.20387H4.29806C4.36025 9.01805 4.42896 8.83468 4.50407 8.65413L2.30367 6.35806C1.84509 5.87955 1.84509 5.10391 2.30369 4.62537L4.43275 2.40398C4.89112 1.92527 5.63453 1.92527 6.09313 2.40384L8.2111 4.6139C8.41029 4.51282 8.61357 4.42077 8.82038 4.33802V1.2251C8.82038 0.548511 9.34603 0 9.99443 0H13.0055C13.6539 0 14.1796 0.548511 14.1796 1.2251V4.26006C14.4082 4.34459 14.6329 4.44039 14.8528 4.54712L16.9067 2.40396C17.3651 1.92522 18.1089 1.92522 18.5671 2.40379L20.6964 4.62552C21.1546 5.10401 21.1546 5.8794 20.6963 6.35806L18.6338 8.50999C18.7337 8.73679 18.8234 8.96833 18.9026 9.20387H21.8259H21.826ZM14.8542 11.875C14.8542 13.8771 13.2989 15.5 11.3802 15.5C9.46152 15.5 7.90627 13.8771 7.90627 11.875C7.90627 9.87286 9.46152 8.24998 11.3802 8.24998C13.2989 8.24998 14.8542 9.87286 14.8542 11.875ZM13.8958 11.875C13.8958 10.4251 12.7697 9.24998 11.3802 9.24998C9.99078 9.24998 8.8646 10.4251 8.8646 11.875C8.8646 13.3248 9.99078 14.5 11.3802 14.5C12.7697 14.5 13.8958 13.3248 13.8958 11.875Z" fill="black"/>
</svg>
