<svg width="31" height="28" viewBox="0 0 31 28" fill="none" xmlns="http://www.w3.org/2000/svg">
<path d="M12.99 27.0783C13.4788 25.8524 17.2505 17.0104 24.9144 15.3166C24.9288 15.3166 24.9427 15.311 24.9528 15.301C24.963 15.291 24.9688 15.2775 24.9688 15.2633C24.9688 15.2492 24.963 15.2356 24.9528 15.2256C24.9427 15.2156 24.9288 15.21 24.9144 15.21C23.623 14.7007 15.7298 11.3191 13.2194 3.2115C13.2194 3.19737 13.2136 3.18381 13.2034 3.17381C13.1933 3.16382 13.1794 3.1582 13.165 3.1582C13.1506 3.1582 13.1368 3.16382 13.1266 3.17381C13.1165 3.18381 13.1107 3.19737 13.1107 3.2115C12.803 4.55586 10.7331 11.7573 1.0415 15.0561C1.02943 15.06 1.01892 15.0675 1.01147 15.0776C1.00401 15.0877 1 15.0998 1 15.1123C1 15.1248 1.00401 15.1369 1.01147 15.147C1.01892 15.1571 1.02943 15.1647 1.0415 15.1686C2.39326 15.3936 9.17616 17.0282 12.8814 27.102C12.8883 27.1115 12.8979 27.1188 12.909 27.123C12.92 27.1272 12.9322 27.1281 12.9438 27.1255C12.9554 27.123 12.9659 27.1172 12.9742 27.1088C12.9824 27.1004 12.9879 27.0898 12.99 27.0783Z" stroke="#17A803" stroke-width="1.52528"/>
<path d="M24.9915 11.2321C25.1783 10.706 26.6147 6.91601 29.5391 6.19073V6.14096C29.0495 5.92764 26.0414 4.47708 25.0817 1H25.0366C24.9206 1.58307 24.1348 4.66907 20.4375 6.06985V6.11963C20.9528 6.21918 23.5358 6.91602 24.9464 11.2393L24.9915 11.2321Z" stroke="#17A803" stroke-width="1.59277"/>
</svg>
