<svg width="22" height="31" viewBox="0 0 22 31" fill="none" xmlns="http://www.w3.org/2000/svg">
<path d="M20.7518 13.382V25.1605C20.7518 28.7846 18.5482 29.9927 15.8275 29.9927H5.97897C3.2583 29.9927 1.05469 28.7846 1.05469 25.1605V13.382C1.05469 9.45584 3.2583 8.5498 5.97897 8.5498C5.97897 9.29879 6.2867 9.9753 6.79144 10.4706C7.29618 10.9659 7.98562 11.2679 8.74888 11.2679H13.0576C14.5842 11.2679 15.8275 10.0478 15.8275 8.5498C18.5482 8.5498 20.7518 9.45584 20.7518 13.382Z" stroke="black" stroke-width="0.84156" stroke-linecap="round" stroke-linejoin="round"/>
<path d="M15.3229 3.6301C15.3229 5.15493 14.2082 6.39692 12.8395 6.39692H8.97653C8.29223 6.39692 7.67411 6.0895 7.22159 5.58532C6.76906 5.08115 6.49316 4.39252 6.49316 3.6301C6.49316 2.10528 7.60792 0.863281 8.97653 0.863281H12.8395C13.5239 0.863281 14.1419 1.17071 14.5945 1.67488C15.047 2.17906 15.3229 2.86769 15.3229 3.6301Z" stroke="black" stroke-width="0.84156" stroke-linecap="round" stroke-linejoin="round"/>
<path d="M6.49316 14.0044H9.88922" stroke="black" stroke-width="0.84156" stroke-linecap="round" stroke-linejoin="round"/>
<path d="M6.49316 23.7671H15.3229" stroke="black" stroke-width="0.84156" stroke-linecap="round" stroke-linejoin="round"/>
</svg>
