<svg width="18" height="24" viewBox="0 0 18 24" fill="none" xmlns="http://www.w3.org/2000/svg">
<path d="M11.5202 12.7522C12.4287 12.3102 13.1982 11.619 13.7423 10.7562H15.1457C15.4555 10.7377 15.7455 10.5951 15.9525 10.3597C16.1595 10.1243 16.2667 9.81506 16.2507 9.49946V6.54653C16.2512 6.39085 16.2239 6.23637 16.17 6.09065V6.08244C15.7585 4.63689 15.0429 3.29991 14.073 2.16436L14.0205 2.10276C13.3851 1.38566 12.5957 0.827672 11.7138 0.472277C10.7969 0.111788 9.81506 -0.0453735 8.8338 0.0112845C7.85255 0.0679425 6.89445 0.337116 6.02346 0.800837C5.4204 1.14168 4.87673 1.58156 4.41437 2.10276L4.36194 2.16436C3.39197 3.29991 2.67638 4.63689 2.26488 6.08244V6.09065C2.21105 6.23637 2.18372 6.39085 2.18422 6.54653V9.49946C2.16825 9.81506 2.27545 10.1243 2.48245 10.3597C2.68944 10.5951 2.97944 10.7377 3.28921 10.7562H4.69263C5.23672 11.619 6.00622 12.3102 6.91471 12.7522C5.1806 13.2226 3.64722 14.2623 2.55213 15.7102C1.45704 17.158 0.861374 18.9333 0.857422 20.7609V23.0033C0.857422 23.1122 0.89991 23.2167 0.97554 23.2937C1.05117 23.3707 1.15375 23.414 1.2607 23.414H17.1742C17.2812 23.414 17.3837 23.3707 17.4594 23.2937C17.535 23.2167 17.5775 23.1122 17.5775 23.0033V20.7609C17.5735 18.9333 16.9779 17.158 15.8828 15.7102C14.7877 14.2623 13.2543 13.2226 11.5202 12.7522ZM15.4441 6.54653V9.49946C15.4441 9.72946 15.303 9.93481 15.1457 9.93481H14.1738C14.2423 9.76231 14.3069 9.58571 14.3593 9.405C14.3593 9.4009 14.3593 9.4009 14.3633 9.39679C14.683 8.32358 14.669 7.17593 14.323 6.11119H15.1457C15.303 6.11119 15.4441 6.31654 15.4441 6.54653ZM3.28921 9.93481C3.13193 9.93481 2.99078 9.72946 2.99078 9.49946V6.54653C2.99078 6.31654 3.13193 6.11119 3.28921 6.11119H4.11191C3.70587 7.36215 3.75888 8.7206 4.26112 9.93481H3.28921ZM3.39406 5.28979C3.77515 4.34857 4.3051 3.4773 4.96283 2.71059L5.01122 2.6572C5.41239 2.2009 5.887 1.81757 6.41464 1.52367C7.18241 1.121 8.02476 0.887317 8.88698 0.837787C9.7492 0.788258 10.612 0.923994 11.4194 1.23618C12.1869 1.54472 12.8731 2.03128 13.4237 2.6572L13.4721 2.71059C14.1298 3.4773 14.6598 4.34857 15.0408 5.28979H13.9842C13.5317 4.39996 12.8478 3.65391 12.0071 3.13316C11.1665 2.6124 10.2014 2.33698 9.21745 2.33698C8.23348 2.33698 7.26844 2.6124 6.42777 3.13316C5.58711 3.65391 4.90316 4.39996 4.45066 5.28979H3.39406ZM4.64827 7.81149C4.64752 7.15654 4.78254 6.50882 5.04449 5.91067C5.30645 5.31252 5.68944 4.77743 6.16843 4.34038C6.64741 3.90334 7.21159 3.57419 7.82407 3.37446C8.43655 3.17473 9.08353 3.10893 9.7227 3.18135C10.3619 3.25377 10.9788 3.46279 11.5332 3.79473C12.0876 4.12667 12.567 4.57406 12.9399 5.10763C13.3128 5.64121 13.571 6.24895 13.6974 6.8911C13.8239 7.53326 13.8158 8.19537 13.6737 8.83413H12.3268C12.244 8.59417 12.0902 8.38627 11.8865 8.23915C11.6828 8.09202 11.4392 8.01291 11.1895 8.01273H9.97966C9.65878 8.01273 9.35106 8.14254 9.12417 8.3736C8.89728 8.60467 8.76981 8.91806 8.76981 9.24483C8.76981 9.5716 8.89728 9.88499 9.12417 10.1161C9.35106 10.3471 9.65878 10.4769 9.97966 10.4769H11.1895C11.4392 10.4768 11.6828 10.3976 11.8865 10.2505C12.0902 10.1034 12.244 9.89549 12.3268 9.65553H13.4116C12.9949 10.6383 12.2582 11.4448 11.3257 11.9388C10.3932 12.4329 9.32196 12.5844 8.29255 12.3678C7.26313 12.1512 6.33855 11.5797 5.6747 10.7497C5.01084 9.91971 4.64833 8.88198 4.64827 7.81149ZM11.5928 9.24072V9.24894C11.5926 9.30262 11.582 9.35573 11.5616 9.40523C11.5412 9.45473 11.5114 9.49965 11.4739 9.53742C11.4365 9.57518 11.3921 9.60505 11.3433 9.62532C11.2945 9.64559 11.2422 9.65585 11.1895 9.65553H9.97966C9.8727 9.65553 9.77012 9.61226 9.69449 9.53524C9.61886 9.45822 9.57637 9.35375 9.57637 9.24483C9.57637 9.13591 9.61886 9.03144 9.69449 8.95442C9.77012 8.8774 9.8727 8.83413 9.97966 8.83413H11.1895C11.2422 8.83381 11.2945 8.84407 11.3433 8.86434C11.3921 8.88461 11.4365 8.91448 11.4739 8.95224C11.5114 8.99001 11.5412 9.03493 11.5616 9.08443C11.582 9.13393 11.5926 9.18704 11.5928 9.24072ZM16.7709 22.5926H1.66399V20.7609C1.66697 18.7794 2.44122 16.8799 3.81704 15.4788C5.19286 14.0777 7.05801 13.2892 9.00371 13.2861H9.43119C11.3769 13.2892 13.242 14.0777 14.6179 15.4788C15.9937 16.8799 16.7679 18.7794 16.7709 20.7609V22.5926Z" fill="black"/>
</svg>
