<svg width="25" height="26" viewBox="0 0 25 26" fill="none" xmlns="http://www.w3.org/2000/svg">
<path d="M2.2486 23C1.01676 23 0 21.9592 0 20.6531V2.34694C0 1.06122 0.997207 0 2.2486 0H18.7514C19.9832 0 21 1.04082 21 2.34694V11L20.9218 10.9796C20.5894 10.8776 20.2765 10.8367 19.9246 10.8367H19.905L19.8855 10.7755H19.8268V2.34694C19.8268 1.7551 19.3184 1.22449 18.7514 1.22449H2.2486C1.68156 1.22449 1.17318 1.7551 1.17318 2.34694V20.6531C1.17318 21.2449 1.68156 21.7755 2.2486 21.7755H10.9106L10.9302 21.7959C11.1453 22.102 11.0279 22.3265 10.9497 22.4898C10.8715 22.6327 10.8324 22.7347 10.9693 22.8776L11.0866 23H2.2486Z" fill="black"/>
<path d="M9.68435 3H3.37135C3.20424 3 3.0557 3.21918 3.0557 3.51142C3.0557 3.80365 3.20424 4.02283 3.37135 4.02283H9.68435C9.85146 4.02283 10 3.80365 10 3.51142C10 3.21918 9.87003 3 9.68435 3ZM3.29708 7C3.12997 7 3 6.76256 3 6.43379C3 6.10502 3.12997 5.86758 3.29708 5.86758H7.82759C7.9947 5.86758 8.12467 6.10502 8.12467 6.43379C8.12467 6.76256 7.9947 7 7.82759 7H3.29708Z" fill="black"/>
<path d="M8.01887 6.19181H3.23526C3.09802 6.19181 3 6.43762 3 6.76536C3 7.09311 3.09802 7.33892 3.23526 7.33892H8.01887C8.15611 7.33892 8.25413 7.09311 8.25413 6.76536C8.25413 6.43762 8.1365 6.19181 8.01887 6.19181ZM17.8998 26C17.2136 26 16.4686 25.959 15.508 25.8771C14.116 25.7542 12.8417 25.0782 11.6066 23.8287L6.03877 18.1341C4.74484 16.8231 4.68603 15.1024 5.84272 13.7914C6.33285 13.2588 7.09744 12.9311 7.92085 12.9311C8.74426 12.9311 9.48925 13.2588 9.95977 13.8324C9.97937 13.8529 10.0186 13.8939 10.097 13.9348C10.1166 13.9553 10.1558 13.9758 10.1754 13.9963V11.2514V9.89944C10.1754 8.85475 10.1754 7.78957 10.195 6.74488C10.2146 5.18808 11.3713 4 12.9005 4H12.9201C14.3905 4 15.508 5.12663 15.5864 6.66294C15.606 7.01117 15.606 7.37989 15.5864 7.7486V8.21974H15.8805C16.8999 8.21974 17.6841 8.58845 18.2527 9.36685C18.2723 9.40782 18.3899 9.44879 18.5467 9.44879C18.6056 9.44879 18.6644 9.44879 18.7036 9.42831C18.88 9.40782 19.0565 9.38734 19.2133 9.38734C19.9975 9.38734 20.6837 9.71508 21.2718 10.3911C21.3699 10.4935 21.5855 10.5754 21.7816 10.5754H21.86C21.9972 10.5549 22.1541 10.5345 22.2913 10.5345C23.7617 10.5345 24.938 11.6201 24.9576 13.0335C25.0164 15.635 25.0556 18.1955 24.7811 20.7356C24.4478 23.8082 22.8794 25.4469 19.8211 25.8566C19.2525 25.959 18.6056 26 17.8998 26ZM7.82282 14.0987C7.41112 14.0987 7.01902 14.2626 6.72495 14.5493C6.37206 14.9181 6.17601 15.3482 6.17601 15.8194C6.17601 16.311 6.39166 16.8026 6.78376 17.2123L7.52875 17.9907C9.15596 19.6704 10.842 21.3911 12.528 23.0912C13.3514 23.9106 14.2925 24.4432 15.3315 24.648C16.1353 24.8119 16.9391 24.8939 17.7233 24.8939C18.4291 24.8939 19.1349 24.8324 19.8211 24.689C22.3109 24.2179 23.448 22.9683 23.6832 20.5512C23.8989 18.2365 23.8793 15.8603 23.8401 13.5661V13.1974C23.8205 12.3575 23.2519 11.784 22.4481 11.784C22.2325 11.784 22.0364 11.825 21.8208 11.9069V15.1024C21.8208 15.3892 21.8208 15.9423 21.2718 15.9423H21.2522C21.0758 15.9423 20.9386 15.9013 20.8601 15.7989C20.7033 15.635 20.6837 15.3277 20.6837 15.0819V14.959C20.6837 14.0168 20.7033 13.054 20.6837 12.0912C20.6641 11.2514 20.0955 10.6574 19.3113 10.6574C19.1153 10.6574 18.9192 10.6983 18.7428 10.7598V14.0782C18.7428 14.365 18.684 14.5903 18.5467 14.7337C18.4487 14.8361 18.3115 14.8976 18.135 14.8976H18.1154C17.5861 14.8771 17.5861 14.3035 17.5861 14.0987V12.7467V11.0261C17.5861 10.6369 17.4293 10.2272 17.1352 9.91993C16.8607 9.63315 16.4882 9.46927 16.1157 9.46927C15.9589 9.46927 15.7824 9.48976 15.6256 9.55121V11.0261C15.6256 11.7225 15.6256 12.46 15.5864 13.1769C15.5668 13.3613 15.4099 13.5047 15.2531 13.648C15.1943 13.7095 15.1159 13.7709 15.0571 13.8324L14.9982 13.8939L14.959 13.7914C14.9198 13.73 14.861 13.6685 14.8022 13.6276C14.6846 13.4842 14.5473 13.3408 14.4689 13.1769C14.4101 13.054 14.4297 12.9106 14.4297 12.7877V12.6238V10.8417C14.4297 9.53073 14.4297 8.17877 14.4101 6.8473C14.4101 5.86406 13.8023 5.20857 12.9201 5.18808C11.9595 5.18808 11.3125 5.90503 11.3125 6.94972V16.5978L11.0576 16.7616L11.038 16.7207C10.8616 16.5158 10.6655 16.311 10.4891 16.1061C10.0774 15.6555 9.64609 15.1639 9.21478 14.7132C8.82268 14.324 8.33255 14.0987 7.82282 14.0987Z" fill="black"/>
</svg>
