<svg width="22" height="20" viewBox="0 0 22 20" fill="none" xmlns="http://www.w3.org/2000/svg">
<path d="M10.3735 14.9998C10.3735 14.5396 10.7629 14.1665 11.2431 14.1665C11.7233 14.1665 12.1127 14.5396 12.1127 14.9998C12.1127 15.4601 11.7233 15.8332 11.2431 15.8332C10.7629 15.8332 10.3735 15.4601 10.3735 14.9998Z" stroke="black" stroke-width="0.814796" stroke-linecap="round" stroke-linejoin="round"/>
<path d="M10.3735 10.0003C10.3735 9.54009 10.7629 9.16699 11.2431 9.16699C11.7233 9.16699 12.1127 9.54009 12.1127 10.0003C12.1127 10.4606 11.7233 10.8337 11.2431 10.8337C10.7629 10.8337 10.3735 10.4606 10.3735 10.0003Z" stroke="black" stroke-width="0.814796" stroke-linecap="round" stroke-linejoin="round"/>
<path d="M10.3735 4.99984C10.3735 4.5396 10.7629 4.1665 11.2431 4.1665C11.7233 4.1665 12.1127 4.5396 12.1127 4.99984C12.1127 5.46007 11.7233 5.83317 11.2431 5.83317C10.7629 5.83317 10.3735 5.46007 10.3735 4.99984Z" stroke="black" stroke-width="0.814796" stroke-linecap="round" stroke-linejoin="round"/>
</svg>
