<svg width="15" height="14" viewBox="0 0 15 14" fill="none" xmlns="http://www.w3.org/2000/svg">
<path d="M5.84842 12.8221C6.0442 13.0178 6.28878 13.1156 6.53357 13.1156C6.77834 13.1156 7.02292 13.0178 7.21872 12.8221C7.61028 12.4305 7.61028 11.8188 7.21872 11.4272L3.35251 7.53656H14.0213C14.5596 7.53656 15 7.0962 15 6.55787C15 6.01953 14.5596 5.57916 14.0213 5.57916H3.35251L7.24315 1.68853C7.6347 1.29697 7.6347 0.685225 7.24315 0.293666C6.85159 -0.0978886 6.23985 -0.0978886 5.84829 0.293666L0.293666 5.87276C-0.0978886 6.26431 -0.0978886 6.87606 0.293666 7.26762L5.84842 12.8221Z" fill="black"/>
</svg>
