<svg width="23" height="25" viewBox="0 0 23 25" fill="none" xmlns="http://www.w3.org/2000/svg">
<path d="M20.125 19.8421V18.2066C20.125 17.3939 19.6478 16.6632 18.9202 16.3614L16.9708 15.5529C16.0452 15.169 14.9904 15.5848 14.5446 16.5093L14.375 16.8611C14.375 16.8611 11.9792 16.3642 10.0625 14.3769C8.14583 12.3896 7.66667 9.90538 7.66667 9.90538L8.00593 9.72949C8.89753 9.26725 9.29857 8.17355 8.92835 7.21388L8.1486 5.19262C7.85753 4.43811 7.15275 3.94336 6.36902 3.94336H4.79167C3.73312 3.94336 2.875 4.83312 2.875 5.9307C2.875 14.7113 9.73997 21.8294 18.2083 21.8294C19.2669 21.8294 20.125 20.9397 20.125 19.8421Z" stroke="black" stroke-width="1.12994" stroke-linejoin="round"/>
</svg>
