<svg width="205" height="197" viewBox="0 0 205 197" fill="none" xmlns="http://www.w3.org/2000/svg">
<path d="M93.958 147.344C93.958 142.823 97.7822 139.158 102.5 139.158C107.217 139.158 111.041 142.823 111.041 147.344C111.041 151.865 107.217 155.529 102.5 155.529C97.7822 155.529 93.958 151.865 93.958 147.344Z" stroke="black" stroke-width="8.54167" stroke-linecap="round" stroke-linejoin="round"/>
<path d="M93.958 98.2291C93.958 93.7082 97.7822 90.0433 102.5 90.0433C107.217 90.0433 111.041 93.7082 111.041 98.2291C111.041 102.75 107.217 106.415 102.5 106.415C97.7822 106.415 93.958 102.75 93.958 98.2291Z" stroke="black" stroke-width="8.54167" stroke-linecap="round" stroke-linejoin="round"/>
<path d="M93.958 49.1145C93.958 44.5936 97.7822 40.9287 102.5 40.9287C107.217 40.9287 111.041 44.5936 111.041 49.1145C111.041 53.6354 107.217 57.3003 102.5 57.3003C97.7822 57.3003 93.958 53.6354 93.958 49.1145Z" stroke="black" stroke-width="8.54167" stroke-linecap="round" stroke-linejoin="round"/>
</svg>
