<svg width="25" height="21" viewBox="0 0 25 21" fill="none" xmlns="http://www.w3.org/2000/svg">
<path d="M15.4466 0.774414H9.66795C5.58184 0.774414 3.53878 0.774414 2.26939 2.00196C1 3.2295 1 5.2052 1 9.15655V11.9507C1 15.902 1 17.8778 2.26939 19.1053C3.53878 20.3329 5.58184 20.3329 9.66795 20.3329H15.4466C19.5327 20.3329 21.5758 20.3329 22.8452 19.1053C24.1145 17.8778 24.1145 15.902 24.1145 11.9507V9.15655C24.1145 5.2052 24.1145 3.2295 22.8452 2.00196C21.5758 0.774414 19.5327 0.774414 15.4466 0.774414Z" stroke="black" stroke-width="1.3039"/>
<path d="M6.33398 6.11035H9.89007" stroke="black" stroke-width="1.3039" stroke-linecap="round"/>
<path d="M21.7434 16.7765H19.3727C18.2551 16.7765 17.6963 16.7765 17.3491 16.3859C17.002 15.9953 17.002 15.3667 17.002 14.1094C17.002 12.8522 17.002 12.2236 17.3491 11.833C17.6963 11.4424 18.2551 11.4424 19.3727 11.4424H21.7434C22.861 11.4424 23.4197 11.4424 23.7669 11.833C24.1141 12.2236 24.1141 12.8522 24.1141 14.1094C24.1141 15.3667 24.1141 15.9953 23.7669 16.3859C23.4197 16.7765 22.861 16.7765 21.7434 16.7765Z" stroke="black" stroke-width="1.3039"/>
</svg>
