<svg width="35" height="34" viewBox="0 0 35 34" fill="none" xmlns="http://www.w3.org/2000/svg">
<path d="M15.9854 24.9206C15.9854 24.156 16.6322 23.5361 17.43 23.5361C18.2279 23.5361 18.8747 24.156 18.8747 24.9206C18.8747 25.6853 18.2279 26.3051 17.43 26.3051C16.6322 26.3051 15.9854 25.6853 15.9854 24.9206Z" stroke="white" stroke-width="1.4447" stroke-linecap="round" stroke-linejoin="round"/>
<path d="M15.9854 16.614C15.9854 15.8494 16.6322 15.2295 17.43 15.2295C18.2279 15.2295 18.8747 15.8494 18.8747 16.614C18.8747 17.3786 18.2279 17.9985 17.43 17.9985C16.6322 17.9985 15.9854 17.3786 15.9854 16.614Z" stroke="white" stroke-width="1.4447" stroke-linecap="round" stroke-linejoin="round"/>
<path d="M15.9854 8.30686C15.9854 7.54223 16.6322 6.92236 17.43 6.92236C18.2279 6.92236 18.8747 7.54223 18.8747 8.30686C18.8747 9.0715 18.2279 9.69136 17.43 9.69136C16.6322 9.69136 15.9854 9.0715 15.9854 8.30686Z" stroke="white" stroke-width="1.4447" stroke-linecap="round" stroke-linejoin="round"/>
</svg>
