<svg width="580" height="879" viewBox="0 0 580 879" fill="none" xmlns="http://www.w3.org/2000/svg">
<path fill-rule="evenodd" clip-rule="evenodd" d="M579.912 11.7065V866.673C579.912 873.122 574.672 878.355 568.229 878.355H11.6823C5.23369 878.355 0 873.122 0 866.673L0 11.7065C0 5.25788 5.23369 0.0241884 11.6823 0.0241884H568.223C574.672 0.0241884 579.912 5.25788 579.912 11.7065ZM556.541 854.991V23.3889H23.3647L23.3647 854.991H556.541Z" fill="black"/>
<path fill-rule="evenodd" clip-rule="evenodd" d="M393.224 439.109C393.224 496.049 346.897 542.375 289.952 542.375C233.012 542.375 186.686 496.055 186.686 439.109C186.686 382.169 233.006 335.837 289.952 335.837C346.891 335.837 393.224 382.163 393.224 439.109ZM210.05 439.109C210.05 483.169 245.892 519.016 289.952 519.016C334.012 519.016 369.853 483.175 369.853 439.109C369.853 395.043 334.012 359.208 289.952 359.208C245.892 359.208 210.05 395.049 210.05 439.109Z" fill="black"/>
<path fill-rule="evenodd" clip-rule="evenodd" d="M579.92 439.161C579.92 445.61 574.681 450.844 568.238 450.844H381.554C366.174 450.844 366.18 427.479 381.554 427.479H568.232C574.681 427.479 579.92 432.713 579.92 439.161ZM210.057 439.161C210.057 445.61 204.824 450.844 198.375 450.844H11.697C-3.68284 450.844 -3.68284 427.479 11.697 427.479H198.375C204.83 427.479 210.057 432.713 210.057 439.161Z" fill="black"/>
<path fill-rule="evenodd" clip-rule="evenodd" d="M454.975 11.678V184.986C454.975 191.434 449.736 196.668 443.293 196.668H136.614C130.165 196.668 124.932 191.428 124.932 184.986V11.6838C124.932 5.23517 130.165 0.00148017 136.614 0.00148017H443.293C449.742 -0.0102022 454.975 5.22348 454.975 11.6721V11.678ZM431.611 173.297V23.372H148.296V173.297H431.611Z" fill="black"/>
<path fill-rule="evenodd" clip-rule="evenodd" d="M403.537 11.7429V126.902C403.537 133.35 398.298 138.584 391.855 138.584H188.068C181.619 138.584 176.386 133.344 176.386 126.902V11.7488C176.386 5.30012 181.619 0.0664291 188.068 0.0664291H391.855C398.298 0.0547468 403.537 5.28843 403.537 11.7371V11.7429ZM380.167 115.213V23.437H199.739V115.213H380.167Z" fill="black"/>
<path fill-rule="evenodd" clip-rule="evenodd" d="M454.975 693.371V866.673C454.975 873.122 449.736 878.355 443.293 878.355H136.614C130.165 878.355 124.932 873.122 124.932 866.673V693.371C124.932 686.923 130.165 681.689 136.614 681.689H443.293C449.742 681.689 454.975 686.923 454.975 693.371ZM431.611 854.991V705.054H148.296V854.991H431.611Z" fill="black"/>
<path fill-rule="evenodd" clip-rule="evenodd" d="M403.537 751.52V866.673C403.537 873.122 398.298 878.355 391.855 878.355H188.068C181.619 878.355 176.386 873.122 176.386 866.673V751.514C176.386 745.066 181.619 739.832 188.068 739.832H391.855C398.298 739.844 403.537 745.066 403.537 751.526V751.52ZM380.167 854.991V763.197H199.739V854.991H380.167Z" fill="black"/>
</svg>
