<svg width="184" height="192" viewBox="0 0 184 192" fill="none" xmlns="http://www.w3.org/2000/svg">
<path d="M180 183.68H176V108.8C176 107.697 175.579 106.639 174.828 105.859C174.078 105.078 173.061 104.64 172 104.64C170.939 104.64 169.922 105.078 169.172 105.859C168.421 106.639 168 107.697 168 108.8V183.68H144V38.0801C144 35.8735 144.843 33.7573 146.343 32.197C147.843 30.6367 149.878 29.7601 152 29.7601H160C162.122 29.7601 164.157 30.6367 165.657 32.197C167.157 33.7573 168 35.8735 168 38.0801V42.2401C168 43.3434 168.421 44.4016 169.172 45.1817C169.922 45.9619 170.939 46.4001 172 46.4001C173.061 46.4001 174.078 45.9619 174.828 45.1817C175.579 44.4016 176 43.3434 176 42.2401V38.0801C176 33.6669 174.314 29.4345 171.314 26.3139C168.313 23.1933 164.243 21.4401 160 21.4401H152C147.757 21.4401 143.687 23.1933 140.686 26.3139C137.686 29.4345 136 33.6669 136 38.0801V183.68H120V79.6801C120 77.4949 119.586 75.3311 118.782 73.3123C117.978 71.2934 116.799 69.459 115.314 67.9139C113.828 66.3687 112.064 65.143 110.123 64.3068C108.182 63.4705 106.101 63.0401 104 63.0401H96C93.8988 63.0401 91.8183 63.4705 89.8771 64.3068C87.9358 65.143 86.172 66.3687 84.6863 67.9139C83.2005 69.459 82.022 71.2934 81.2179 73.3123C80.4138 75.3311 80 77.4949 80 79.6801V183.68H64V121.28C64 119.095 63.5861 116.931 62.7821 114.912C61.978 112.893 60.7994 111.059 59.3137 109.514C57.828 107.969 56.0641 106.743 54.1229 105.907C52.1817 105.071 50.1011 104.64 48 104.64H40C37.8988 104.64 35.8183 105.071 33.8771 105.907C31.9359 106.743 30.172 107.969 28.6863 109.514C27.2006 111.059 26.022 112.893 25.2179 114.912C24.4139 116.931 24 119.095 24 121.28V183.68H8V4.80014C8 3.69684 7.57857 2.63872 6.82843 1.85857C6.07828 1.07842 5.06087 0.640137 4 0.640137C2.93913 0.640137 1.92172 1.07842 1.17157 1.85857C0.421428 2.63872 0 3.69684 0 4.80014V187.84C-2.46228e-08 188.386 0.103463 188.927 0.304482 189.432C0.505501 189.937 0.800139 190.395 1.17157 190.782C1.54301 191.168 1.98396 191.474 2.46927 191.683C2.95457 191.893 3.47471 192 4 192H180C181.061 192 182.078 191.562 182.828 190.782C183.579 190.002 184 188.943 184 187.84C184 186.737 183.579 185.679 182.828 184.899C182.078 184.118 181.061 183.68 180 183.68ZM56 183.68H32V121.28C32 119.074 32.8429 116.957 34.3431 115.397C35.8434 113.837 37.8783 112.96 40 112.96H48C49.0506 112.96 50.0909 113.175 51.0615 113.593C52.0321 114.012 52.914 114.624 53.6569 115.397C54.3997 116.17 54.989 117.087 55.391 118.096C55.7931 119.106 56 120.188 56 121.28V183.68ZM112 183.68H88V79.6801C88 77.4735 88.8428 75.3573 90.3431 73.797C91.8434 72.2367 93.8783 71.3601 96 71.3601H104C105.051 71.3601 106.091 71.5753 107.061 71.9935C108.032 72.4116 108.914 73.0244 109.657 73.797C110.4 74.5696 110.989 75.4868 111.391 76.4962C111.793 77.5056 112 78.5875 112 79.6801V183.68Z" fill="black"/>
<path d="M172.96 66.921C172.477 66.921 171.999 67.016 171.552 67.2006C171.106 67.3852 170.7 67.6557 170.358 67.9968C170.017 68.3379 169.745 68.7429 169.561 69.1885C169.376 69.6342 169.28 70.1118 169.28 70.5942V85.287C169.28 86.2612 169.668 87.1954 170.358 87.8843C171.048 88.5732 171.984 88.9602 172.96 88.9602C173.936 88.9602 174.872 88.5732 175.562 87.8843C176.253 87.1954 176.64 86.2612 176.64 85.287V70.5942C176.64 69.62 176.253 68.6857 175.562 67.9968C174.872 67.308 173.936 66.921 172.96 66.921ZM176.346 54.5056C176.16 54.0604 175.898 53.6505 175.573 53.2934L175.021 52.8526C174.816 52.7136 174.593 52.6024 174.359 52.522L173.696 52.2282C172.979 52.0884 172.236 52.1651 171.562 52.4486C171.105 52.6136 170.691 52.8768 170.347 53.2195C170.004 53.5623 169.74 53.9763 169.575 54.4321C169.377 54.8965 169.276 55.3966 169.28 55.9014C169.278 56.3848 169.37 56.864 169.554 57.3116C169.737 57.7591 170.007 58.1661 170.348 58.5094C170.698 58.8438 171.11 59.1059 171.562 59.2807C172.004 59.4689 172.479 59.5688 172.96 59.5746C173.445 59.5774 173.925 59.4847 174.373 59.3019C174.821 59.1191 175.229 58.8498 175.573 58.5094C176.246 57.8054 176.627 56.8739 176.64 55.9014C176.634 55.4214 176.534 54.9472 176.346 54.5056Z" fill="black"/>
</svg>
