<svg width="23" height="25" viewBox="0 0 23 25" fill="none" xmlns="http://www.w3.org/2000/svg">
<path fill-rule="evenodd" clip-rule="evenodd" d="M12.2186 0.175782H10.7269C9.88679 0.175782 9.08129 0.503771 8.48866 1.08719C7.96338 1.6043 7.64207 2.28608 7.58011 3.01156L7.56983 3.24588C7.55838 4.00889 6.94197 4.60414 6.18537 4.60407C6.01379 4.60228 5.83558 4.56312 5.67153 4.48935L5.5106 4.4053C4.02399 3.57002 2.09112 4.08165 1.21893 5.56476L0.434696 6.82731C-0.399201 8.24475 0.0120873 10.0254 1.3582 10.9426L1.54541 11.0603C2.00682 11.3222 2.27058 11.7698 2.27058 12.2542C2.27058 12.6997 2.04719 13.1162 1.67462 13.3688L1.54743 13.4469C0.152809 14.2365 -0.396688 15.9794 0.304335 17.4291L0.40679 17.6221L1.17659 18.9244C1.57671 19.6321 2.26236 20.1652 3.07329 20.391C3.79206 20.5911 4.55912 20.5358 5.23916 20.2361L5.45419 20.1309C5.81611 19.9259 6.19 19.8768 6.54092 19.9688C6.89184 20.0608 7.19071 20.2863 7.3711 20.5952C7.47055 20.7596 7.52893 20.9292 7.54977 21.1048L7.56003 21.2832C7.55825 22.9427 8.97691 24.3326 10.7269 24.3326H12.219C13.8714 24.3326 15.2429 23.0889 15.377 21.4838L15.3868 21.2765C15.3859 20.8756 15.5307 20.5308 15.7898 20.2769C16.0489 20.0231 16.4008 19.8812 16.7672 19.883C16.9357 19.8876 17.1207 19.9289 17.2922 20.004L17.4566 20.087C18.8436 20.8714 20.6611 20.4685 21.5972 19.1496L21.7173 18.9662L22.5141 17.6658C22.943 16.9446 23.0591 16.0972 22.8426 15.3016C22.6506 14.5964 22.2106 13.9811 21.6015 13.5636L21.3998 13.437C21.0493 13.2385 20.8183 12.9436 20.7241 12.5977C20.63 12.2517 20.6805 11.8833 20.8644 11.5739C20.9663 11.3997 21.1018 11.2548 21.2642 11.1438L21.575 10.9525C22.8334 10.1154 23.3047 8.46784 22.6423 7.08273L22.5736 6.94784C22.5588 6.91266 22.5416 6.87836 22.522 6.84517L21.7814 5.58604C20.9574 4.18483 19.1756 3.64105 17.69 4.32532L17.4921 4.42544C17.1371 4.62894 16.7623 4.68039 16.4093 4.59061C16.0564 4.50083 15.7545 4.27721 15.57 3.96906C15.4754 3.81279 15.417 3.64325 15.3962 3.46757L15.3859 3.28918C15.4119 2.53069 15.0889 1.71796 14.492 1.11634C13.8951 0.514719 13.075 0.175436 12.2186 0.175782ZM10.7269 1.92566H12.219C12.5934 1.92551 12.9515 2.07369 13.2122 2.33644C13.4729 2.59918 13.6139 2.95413 13.6032 3.32041L13.6191 3.62486C13.673 4.09024 13.8125 4.4951 14.0328 4.85881C14.4546 5.56357 15.1491 6.07789 15.9608 6.28437C16.7724 6.49085 17.6346 6.37253 18.3571 5.95552L18.4817 5.89332L18.6158 5.84071C19.2057 5.64677 19.9009 5.89223 20.235 6.46032L20.9413 7.66233L20.9566 7.69619L21.042 7.85749C21.3278 8.45682 21.089 9.21494 20.4705 9.56936L20.2764 9.68916C19.8646 9.96939 19.5488 10.3074 19.319 10.7005C18.8991 11.4064 18.783 12.2538 18.9996 13.0495C19.1965 13.7728 19.6535 14.3991 20.2823 14.8155L20.6112 15.0192C20.8432 15.1792 21.0345 15.4468 21.118 15.7534C21.2122 16.0993 21.1617 16.4678 20.9777 16.7771L20.1994 18.0479L20.1119 18.182C19.7517 18.6882 19.0412 18.8762 18.4422 18.6185L18.0605 18.4276C17.6349 18.2399 17.2185 18.147 16.7954 18.1359C15.933 18.1316 15.1236 18.4579 14.5277 19.0417C13.9318 19.6256 13.5988 20.4186 13.6029 21.2443L13.596 21.376C13.5397 22.0418 12.9404 22.5852 12.219 22.5852H10.7269C10.0135 22.5852 9.42627 22.0564 9.35114 21.3771L9.32679 20.95C9.27282 20.4847 9.1334 20.0798 8.91308 19.7161C8.50351 19.0144 7.81302 18.4934 7.00227 18.2808C6.19152 18.0683 5.3277 18.1818 4.60281 18.5962L4.47149 18.6592C4.21012 18.7734 3.87509 18.7976 3.56119 18.7102C3.20703 18.6116 2.90758 18.3788 2.72911 18.0632L1.96908 16.7787L1.90109 16.65C1.61319 16.0529 1.85223 15.2947 2.47168 14.9436L2.65986 14.8277C3.54392 14.2291 4.05534 13.2755 4.05534 12.2554C4.05534 11.2203 3.52923 10.2585 2.66199 9.68395L2.34709 9.48857C1.79067 9.1086 1.61094 8.33048 1.9703 7.71946L2.75453 6.45689C3.14628 5.79125 3.99043 5.5678 4.65245 5.93946L4.8848 6.05952C5.31876 6.256 5.74431 6.34951 6.17598 6.3539C7.85056 6.35411 9.21989 5.09399 9.34485 3.48832L9.36108 3.12006C9.38559 2.84322 9.52531 2.54676 9.75369 2.32193C10.0114 2.06827 10.3616 1.92566 10.7269 1.92566ZM11.478 8.30781C9.25279 8.30781 7.44891 10.0751 7.44891 12.2553C7.44891 14.4354 9.25279 16.2027 11.478 16.2027C13.7032 16.2027 15.507 14.4354 15.507 12.2553C15.507 10.0751 13.7032 8.30781 11.478 8.30781ZM11.4785 10.0579C12.718 10.0579 13.7228 11.0423 13.7228 12.2567C13.7228 13.4711 12.718 14.4555 11.4785 14.4555C10.239 14.4555 9.23422 13.4711 9.23422 12.2567C9.23422 11.0423 10.239 10.0579 11.4785 10.0579Z" fill="black"/>
</svg>
