<svg width="123" height="135" viewBox="0 0 123 135" fill="none" xmlns="http://www.w3.org/2000/svg">
<path d="M47.5227 22.3636H75.4773C75.4773 18.6566 74.0047 15.1015 71.3834 12.4802C68.7622 9.85896 65.207 8.38636 61.5 8.38636C57.793 8.38636 54.2378 9.85896 51.6166 12.4802C48.9953 15.1015 47.5227 18.6566 47.5227 22.3636ZM39.1364 22.3636C39.1364 16.4324 41.4925 10.7442 45.6865 6.55016C49.8805 2.35616 55.5688 0 61.5 0C67.4312 0 73.1195 2.35616 77.3135 6.55016C81.5075 10.7442 83.8636 16.4324 83.8636 22.3636H118.807C119.919 22.3636 120.985 22.8054 121.772 23.5918C122.558 24.3782 123 25.4447 123 26.5568C123 27.6689 122.558 28.7355 121.772 29.5218C120.985 30.3082 119.919 30.75 118.807 30.75H111.483L104.679 112.394C104.184 118.333 101.475 123.87 97.0889 127.906C92.7032 131.941 86.961 134.181 81.0011 134.182H41.9989C36.039 134.181 30.2968 131.941 25.9111 127.906C21.5254 123.87 18.8164 118.333 18.3214 112.394L11.5173 30.75H4.19318C3.08108 30.75 2.01453 30.3082 1.22815 29.5218C0.44178 28.7355 0 27.6689 0 26.5568C0 25.4447 0.44178 24.3782 1.22815 23.5918C2.01453 22.8054 3.08108 22.3636 4.19318 22.3636H39.1364ZM26.6798 111.695C26.9996 115.538 28.7519 119.121 31.5895 121.733C34.427 124.345 38.1424 125.795 41.9989 125.795H81.0011C84.8576 125.795 88.573 124.345 91.4105 121.733C94.2481 119.121 96.0004 115.538 96.3202 111.695L103.074 30.75H19.9316L26.6798 111.695ZM48.9205 50.3182C50.0326 50.3182 51.0991 50.76 51.8855 51.5463C52.6719 52.3327 53.1136 53.3993 53.1136 54.5114V102.034C53.1136 103.146 52.6719 104.213 51.8855 104.999C51.0991 105.785 50.0326 106.227 48.9205 106.227C47.8084 106.227 46.7418 105.785 45.9554 104.999C45.1691 104.213 44.7273 103.146 44.7273 102.034V54.5114C44.7273 53.3993 45.1691 52.3327 45.9554 51.5463C46.7418 50.76 47.8084 50.3182 48.9205 50.3182ZM78.2727 54.5114C78.2727 53.3993 77.8309 52.3327 77.0446 51.5463C76.2582 50.76 75.1916 50.3182 74.0795 50.3182C72.9674 50.3182 71.9009 50.76 71.1145 51.5463C70.3281 52.3327 69.8864 53.3993 69.8864 54.5114V102.034C69.8864 103.146 70.3281 104.213 71.1145 104.999C71.9009 105.785 72.9674 106.227 74.0795 106.227C75.1916 106.227 76.2582 105.785 77.0446 104.999C77.8309 104.213 78.2727 103.146 78.2727 102.034V54.5114Z" fill="black"/>
</svg>
