<svg width="28" height="29" viewBox="0 0 28 29" fill="none" xmlns="http://www.w3.org/2000/svg">
<circle cx="14.12" cy="14.3534" r="13.8807" fill="#F7F7F7"/>
<mask id="mask0_1316_12806" style="mask-type:alpha" maskUnits="userSpaceOnUse" x="5" y="3" width="19" height="23">
<rect x="5.76367" y="3.68359" width="17.9709" height="21.3404" fill="#D9D9D9"/>
</mask>
<g mask="url(#mask0_1316_12806)">
<path fill-rule="evenodd" clip-rule="evenodd" d="M13.7992 7.58938C14.928 7.68461 16.0568 7.01805 16.7623 6.17294C17.4561 5.30403 17.9147 4.13755 17.7971 2.94727C16.7976 2.99488 15.563 3.61383 14.8574 4.48274C14.2107 5.23262 13.6581 6.44671 13.7992 7.58938ZM27.2275 22.9203V4.36374H34.1063C37.6574 4.36374 40.1385 6.83954 40.1385 10.458C40.1385 14.0765 37.6104 16.5761 34.0122 16.5761H30.0731V22.9203H27.2275ZM17.7859 7.81553C16.7914 7.75759 15.884 8.11828 15.151 8.40961C14.6794 8.59709 14.28 8.75586 13.9761 8.75586C13.6351 8.75586 13.2192 8.58861 12.7522 8.40082C12.1403 8.15476 11.4408 7.87345 10.7072 7.88695C9.02569 7.91075 7.46178 8.87489 6.6034 10.4104C4.8396 13.4813 6.14481 18.0282 7.84982 20.5278C8.68468 21.7657 9.68417 23.1226 11.0011 23.075C11.5805 23.0529 11.9973 22.8738 12.4286 22.6886C12.9252 22.4753 13.4411 22.2537 14.2465 22.2537C15.0241 22.2537 15.5174 22.4695 15.9909 22.6767C16.4412 22.8736 16.8736 23.0628 17.5154 23.0512C18.8795 23.0274 19.7378 21.8133 20.5727 20.5754C21.4737 19.2468 21.8696 17.9502 21.9297 17.7534L21.9367 17.7306C21.9353 17.7292 21.9241 17.724 21.9045 17.7149C21.6033 17.5753 19.3013 16.5086 19.2792 13.6479C19.2571 11.2469 21.1051 10.0303 21.396 9.83882L21.3961 9.83882L21.3961 9.8388C21.4138 9.82716 21.4257 9.81931 21.4311 9.81521C20.2552 8.05359 18.4209 7.86314 17.7859 7.81553ZM45.336 23.0633C47.1234 23.0633 48.7813 22.1468 49.5339 20.6947H49.5927V22.9205H52.2266V13.6839C52.2266 11.0058 50.1101 9.27984 46.8529 9.27984C43.8309 9.27984 41.5968 11.0296 41.5145 13.4339H44.0779C44.2895 12.2913 45.336 11.5414 46.7706 11.5414C48.5109 11.5414 49.4868 12.3627 49.4868 13.8743V14.898L45.9357 15.1122C42.6315 15.3146 40.8442 16.6834 40.8442 19.064C40.8442 21.4684 42.6903 23.0633 45.336 23.0633ZM46.0994 20.861C44.5826 20.861 43.6184 20.1231 43.6184 18.9923C43.6184 17.8258 44.5473 17.1473 46.3228 17.0402L49.4859 16.8379V17.8853C49.4859 19.6231 48.0279 20.861 46.0994 20.861ZM60.964 23.6465C59.8234 26.8959 58.5182 27.9672 55.7431 27.9672C55.5315 27.9672 54.826 27.9434 54.6613 27.8958V25.6699C54.8377 25.6937 55.2728 25.7175 55.4962 25.7175C56.7544 25.7175 57.4599 25.1819 57.895 23.7893L58.1537 22.968L53.3326 9.45825H56.3075L59.6588 20.4208H59.7176L63.0688 9.45825H65.9614L60.964 23.6465ZM30.0736 6.792H33.3543C35.8236 6.792 37.2346 8.12512 37.2346 10.47C37.2346 12.8148 35.8236 14.1599 33.3425 14.1599H30.0736V6.792Z" fill="black"/>
</g>
</svg>
