<svg width="23" height="22" viewBox="0 0 23 22" fill="none" xmlns="http://www.w3.org/2000/svg">
<path d="M19.1654 2.98868V3.10854H19.2853H19.8156C21.0185 3.10988 21.9934 4.08484 21.9947 5.28779V19.4337C21.9941 20.6366 21.0185 21.6122 19.8157 21.6129H2.83997C1.63712 21.6115 0.66221 20.6366 0.660869 19.4336L0.660869 5.28772C0.662245 4.0848 1.63714 3.10988 2.83997 3.10854H3.37033H3.49019V2.98868V1.0434C3.49019 0.621496 3.83264 0.279033 4.2545 0.279033C4.67635 0.279033 5.01881 0.621496 5.01881 1.0434V2.98868V3.10854H5.13866H17.5169H17.6368V2.98868V1.0434C17.6368 0.621496 17.9792 0.279033 18.4011 0.279033C18.823 0.279033 19.1654 0.621496 19.1654 1.0434V2.98868ZM2.83984 4.63727L2.83955 4.63727C2.48074 4.63814 2.19035 4.92855 2.18949 5.28737V5.28766V7.23294V7.35279H2.30934H20.3463H20.4661V7.23294V5.28766C20.4661 4.92862 20.1748 4.63727 19.8158 4.63727L2.83984 4.63727ZM2.30934 8.88153H2.18949V9.00138V19.4338C2.18949 19.7928 2.4808 20.0842 2.83984 20.0842H19.8158C20.1748 20.0842 20.4661 19.7928 20.4661 19.4338V9.00138V8.88153H20.3463H2.30934Z" fill="black" stroke="black" stroke-width="0.239706"/>
</svg>
