<svg width="26" height="35" viewBox="0 0 26 35" fill="none" xmlns="http://www.w3.org/2000/svg">
<path d="M13.7345 9.74039C13.7345 9.13137 13.4973 8.5473 13.0751 8.11666C12.6528 7.68602 12.0802 7.44409 11.483 7.44409C10.8859 7.44409 10.3132 7.68602 9.89101 8.11666C9.46878 8.5473 9.23157 9.13137 9.23157 9.74039M8.09683 21.2219H11.474M14.8512 21.2219H11.474M11.474 21.2219V17.7774M11.474 21.2219V24.6663M19.6559 15.1321L21.215 25.4654C21.2643 25.7925 21.2438 26.1265 21.1547 26.4447C21.0657 26.7629 20.9102 27.0577 20.6991 27.3089C20.4879 27.5602 20.2261 27.7619 19.9314 27.9003C19.6367 28.0387 19.3161 28.1105 18.9917 28.1108H3.97439C3.64977 28.1108 3.32897 28.0392 3.034 27.901C2.73903 27.7627 2.47686 27.5611 2.26547 27.3098C2.05407 27.0585 1.89845 26.7636 1.80928 26.4453C1.7201 26.1269 1.69947 25.7927 1.74882 25.4654L3.30796 15.1321C3.38974 14.5897 3.65928 14.0951 4.06775 13.7379C4.47621 13.3807 4.9966 13.1845 5.53466 13.1848H17.4314C17.9693 13.1848 18.4894 13.3811 18.8976 13.7383C19.3059 14.0955 19.5752 14.5899 19.657 15.1321H19.6559Z" stroke="black" stroke-width="1.60741" stroke-linecap="round" stroke-linejoin="round"/>
<circle cx="19" cy="7" r="7" fill="#17A803"/>
<path d="M18.8673 10.0888C18.4486 10.0888 18.0754 10.0169 17.7476 9.87313C17.422 9.72934 17.163 9.52952 16.9706 9.27367C16.7803 9.0157 16.6766 8.71649 16.6597 8.37606H17.459C17.4759 8.58539 17.5478 8.76618 17.6747 8.91843C17.8016 9.06856 17.9676 9.18486 18.1727 9.26732C18.3778 9.34979 18.6051 9.39102 18.8546 9.39102C19.1337 9.39102 19.3811 9.34239 19.5968 9.24512C19.8125 9.14785 19.9816 9.01252 20.1043 8.83913C20.2269 8.66574 20.2882 8.46487 20.2882 8.2365C20.2882 7.99756 20.229 7.78716 20.1106 7.60532C19.9922 7.42135 19.8188 7.27757 19.5904 7.17396C19.3621 7.07035 19.083 7.01854 18.7531 7.01854H18.2329V6.32075H18.7531C19.0111 6.32075 19.2373 6.27423 19.4319 6.18119C19.6285 6.08816 19.7818 5.95706 19.8918 5.78789C20.0038 5.61873 20.0599 5.41997 20.0599 5.1916C20.0599 4.97169 20.0112 4.78033 19.914 4.61751C19.8167 4.4547 19.6792 4.32783 19.5016 4.2369C19.3261 4.14598 19.1189 4.10052 18.88 4.10052C18.6558 4.10052 18.4444 4.14175 18.2456 4.22421C18.049 4.30457 17.8883 4.42192 17.7635 4.57628C17.6387 4.72853 17.5711 4.91249 17.5605 5.12817H16.7993C16.812 4.78773 16.9145 4.48959 17.1069 4.23373C17.2994 3.97576 17.551 3.77488 17.8618 3.63109C18.1748 3.48731 18.5184 3.41541 18.8927 3.41541C19.2944 3.41541 19.6391 3.49682 19.9266 3.65964C20.2142 3.82034 20.4352 4.03285 20.5895 4.29717C20.7439 4.56148 20.8211 4.84694 20.8211 5.15354C20.8211 5.51935 20.7249 5.83124 20.5325 6.08921C20.3421 6.34718 20.0831 6.52586 19.7554 6.62524V6.67599C20.1656 6.74365 20.4859 6.9181 20.7164 7.19933C20.9469 7.47845 21.0621 7.82417 21.0621 8.2365C21.0621 8.58962 20.9659 8.9068 20.7735 9.18803C20.5832 9.46714 20.3231 9.68705 19.9933 9.84776C19.6634 10.0085 19.2881 10.0888 18.8673 10.0888Z" fill="white"/>
</svg>
