<svg width="23" height="23" viewBox="0 0 23 23" fill="none" xmlns="http://www.w3.org/2000/svg">
<path d="M22.5091 8.62281L12.4466 0.3348C11.9046 -0.111599 11.0954 -0.1116 10.5534 0.334799L0.4909 8.62281C0.178941 8.87976 0 9.25096 0 9.64116V21.6469C0 22.3942 0.643591 23 1.4375 23H7.1875C7.98141 23 8.625 22.3942 8.625 21.6469V16.2343C8.625 15.487 9.26859 14.8811 10.0625 14.8811H12.9375C13.7314 14.8811 14.375 15.487 14.375 16.2343V21.6469C14.375 22.3942 15.0186 23 15.8125 23H21.5625C22.3564 23 23 22.3942 23 21.6469V9.64116C23 9.25096 22.8211 8.87976 22.5091 8.62281Z" fill="black"/>
</svg>
