<svg width="25" height="19" viewBox="0 0 25 19" fill="none" xmlns="http://www.w3.org/2000/svg">
<path d="M4.97736 0.274057C5.34277 0.639466 5.34277 1.23191 4.97736 1.59732C0.836052 5.73863 0.836052 12.453 4.97736 16.5943C5.34277 16.9597 5.34277 17.5522 4.97736 17.9176C4.61195 18.283 4.0195 18.283 3.65409 17.9176C-1.21803 13.0455 -1.21803 5.14618 3.65409 0.274057C4.0195 -0.0913523 4.61195 -0.0913523 4.97736 0.274057ZM21.2976 0.274057C26.1697 5.14618 26.1697 13.0455 21.2976 17.9176C20.9322 18.283 20.3398 18.283 19.9743 17.9176C19.6089 17.5522 19.6089 16.9597 19.9743 16.5943C24.1157 12.453 24.1157 5.73863 19.9743 1.59732C19.6089 1.23191 19.6089 0.639466 19.9743 0.274057C20.3398 -0.0913523 20.9322 -0.0913523 21.2976 0.274057ZM8.50606 3.80276C8.87147 4.16817 8.87147 4.76062 8.50606 5.12602C6.3136 7.31848 6.3136 10.8732 8.50606 13.0656C8.87147 13.431 8.87147 14.0235 8.50606 14.3889C8.14065 14.7543 7.5482 14.7543 7.1828 14.3889C4.25952 11.4656 4.25952 6.72603 7.1828 3.80276C7.5482 3.43735 8.14065 3.43735 8.50606 3.80276ZM17.7689 3.80276C20.6922 6.72603 20.6922 11.4656 17.7689 14.3889C17.4035 14.7543 16.8111 14.7543 16.4456 14.3889C16.0802 14.0235 16.0802 13.431 16.4456 13.0656C18.6381 10.8732 18.6381 7.31848 16.4456 5.12602C16.0802 4.76062 16.0802 4.16817 16.4456 3.80276C16.8111 3.43735 17.4035 3.43735 17.7689 3.80276ZM12.4759 7.22444C13.5094 7.22444 14.3472 8.06228 14.3472 9.09582C14.3472 10.1293 13.5094 10.9672 12.4759 10.9672C11.4423 10.9672 10.6045 10.1293 10.6045 9.09582C10.6045 8.06228 11.4423 7.22444 12.4759 7.22444Z" fill="white"/>
</svg>
