<svg width="23" height="25" viewBox="0 0 23 25" fill="none" xmlns="http://www.w3.org/2000/svg">
<path fill-rule="evenodd" clip-rule="evenodd" d="M12.2186 0.401367H10.7269C9.88679 0.401367 9.08129 0.729357 8.48866 1.31277C7.96338 1.82988 7.64207 2.51166 7.58011 3.23714L7.56983 3.47147C7.55838 4.23448 6.94197 4.82973 6.18537 4.82965C6.01379 4.82786 5.83558 4.7887 5.67153 4.71493L5.5106 4.63088C4.02399 3.7956 2.09112 4.30724 1.21893 5.79034L0.434696 7.0529C-0.399201 8.47034 0.0120873 10.251 1.3582 11.1682L1.54541 11.2858C2.00682 11.5478 2.27058 11.9954 2.27058 12.4798C2.27058 12.9253 2.04719 13.3418 1.67462 13.5944L1.54743 13.6725C0.152809 14.4621 -0.396688 16.2049 0.304335 17.6547L0.40679 17.8477L1.17659 19.15C1.57671 19.8577 2.26236 20.3908 3.07329 20.6166C3.79206 20.8167 4.55912 20.7614 5.23916 20.4617L5.45419 20.3565C5.81611 20.1515 6.19 20.1024 6.54092 20.1944C6.89184 20.2864 7.19071 20.5119 7.3711 20.8208C7.47055 20.9852 7.52893 21.1548 7.54977 21.3304L7.56003 21.5088C7.55825 23.1683 8.97691 24.5582 10.7269 24.5582H12.219C13.8714 24.5582 15.2429 23.3145 15.377 21.7094L15.3868 21.5021C15.3859 21.1012 15.5307 20.7564 15.7898 20.5025C16.0489 20.2487 16.4008 20.1068 16.7672 20.1086C16.9357 20.1132 17.1207 20.1545 17.2922 20.2296L17.4566 20.3126C18.8436 21.097 20.6611 20.694 21.5972 19.3752L21.7173 19.1918L22.5141 17.8914C22.943 17.1702 23.0591 16.3228 22.8426 15.5272C22.6506 14.8219 22.2106 14.2067 21.6015 13.7892L21.3998 13.6626C21.0493 13.4641 20.8183 13.1692 20.7241 12.8233C20.63 12.4773 20.6805 12.1089 20.8644 11.7995C20.9663 11.6253 21.1018 11.4804 21.2642 11.3694L21.575 11.1781C22.8334 10.341 23.3047 8.69343 22.6423 7.30831L22.5736 7.17343C22.5588 7.13825 22.5416 7.10395 22.522 7.07075L21.7814 5.81163C20.9574 4.41041 19.1756 3.86663 17.69 4.5509L17.4921 4.65102C17.1371 4.85453 16.7623 4.90597 16.4093 4.8162C16.0564 4.72642 15.7545 4.5028 15.57 4.19465C15.4754 4.03837 15.417 3.86883 15.3962 3.69316L15.3859 3.51477C15.4119 2.75627 15.0889 1.94355 14.492 1.34193C13.8951 0.740305 13.075 0.401022 12.2186 0.401367ZM10.7269 2.15125H12.219C12.5934 2.1511 12.9515 2.29927 13.2122 2.56202C13.4729 2.82477 13.6139 3.17972 13.6032 3.546L13.6191 3.85044C13.673 4.31582 13.8125 4.72069 14.0328 5.0844C14.4546 5.78916 15.1491 6.30347 15.9608 6.50995C16.7724 6.71643 17.6346 6.59812 18.3571 6.1811L18.4817 6.11891L18.6158 6.0663C19.2057 5.87236 19.9009 6.11782 20.235 6.6859L20.9413 7.88791L20.9566 7.92178L21.042 8.08308C21.3278 8.68241 21.089 9.44053 20.4705 9.79495L20.2764 9.91475C19.8646 10.195 19.5488 10.533 19.319 10.9261C18.8991 11.632 18.783 12.4794 18.9996 13.2751C19.1965 13.9984 19.6535 14.6247 20.2823 15.0411L20.6112 15.2448C20.8432 15.4048 21.0345 15.6723 21.118 15.979C21.2122 16.3249 21.1617 16.6933 20.9777 17.0027L20.1994 18.2735L20.1119 18.4076C19.7517 18.9138 19.0412 19.1017 18.4422 18.8441L18.0605 18.6531C17.6349 18.4655 17.2185 18.3726 16.7954 18.3615C15.933 18.3572 15.1236 18.6834 14.5277 19.2673C13.9318 19.8512 13.5988 20.6442 13.6029 21.4699L13.596 21.6016C13.5397 22.2674 12.9404 22.8108 12.219 22.8108H10.7269C10.0135 22.8108 9.42627 22.282 9.35114 21.6027L9.32679 21.1756C9.27282 20.7103 9.1334 20.3054 8.91308 19.9417C8.50351 19.24 7.81302 18.719 7.00227 18.5064C6.19152 18.2938 5.3277 18.4074 4.60281 18.8218L4.47149 18.8848C4.21012 18.999 3.87509 19.0232 3.56119 18.9358C3.20703 18.8372 2.90758 18.6043 2.72911 18.2888L1.96908 17.0043L1.90109 16.8756C1.61319 16.2785 1.85223 15.5203 2.47168 15.1692L2.65986 15.0533C3.54392 14.4547 4.05534 13.5011 4.05534 12.481C4.05534 11.4458 3.52923 10.484 2.66199 9.90953L2.34709 9.71416C1.79067 9.33418 1.61094 8.55607 1.9703 7.94504L2.75453 6.68247C3.14628 6.01684 3.99043 5.79339 4.65245 6.16505L4.8848 6.28511C5.31876 6.48159 5.74431 6.57509 6.17598 6.57949C7.85056 6.5797 9.21989 5.31958 9.34485 3.71391L9.36108 3.34565C9.38559 3.0688 9.52531 2.77235 9.75369 2.54752C10.0114 2.29386 10.3616 2.15125 10.7269 2.15125ZM11.478 8.5334C9.25279 8.5334 7.44891 10.3007 7.44891 12.4808C7.44891 14.661 9.25279 16.4283 11.478 16.4283C13.7032 16.4283 15.507 14.661 15.507 12.4808C15.507 10.3007 13.7032 8.5334 11.478 8.5334ZM11.4785 10.2835C12.718 10.2835 13.7228 11.2679 13.7228 12.4823C13.7228 13.6967 12.718 14.6811 11.4785 14.6811C10.239 14.6811 9.23422 13.6967 9.23422 12.4823C9.23422 11.2679 10.239 10.2835 11.4785 10.2835Z" fill="black"/>
</svg>
