<svg width="21" height="25" viewBox="0 0 21 25" fill="none" xmlns="http://www.w3.org/2000/svg">
<path d="M16.614 21.1883C16.4962 21.8806 15.907 22.358 15.2236 22.358H4.24188V24.2678H15.2236C16.8261 24.2678 18.1929 23.0981 18.4757 21.5225L19.9839 12.9284C20.1489 11.9496 19.8897 10.9469 19.277 10.2069C18.6407 9.44298 17.7216 9.01327 16.7554 9.01327H13.0084C13.2912 8.12998 13.6683 6.84087 13.9746 5.14591L14.116 4.14327C14.3281 2.56768 13.2441 1.13532 11.7123 0.920469C10.9582 0.824978 10.2276 1.01596 9.61492 1.46954C9.0022 1.92312 8.62515 2.61542 8.50732 3.35547L8.36592 4.31037C8.34235 4.42974 8.31879 4.5491 8.31879 4.66846C8.29522 4.78783 8.27166 4.90719 8.24809 5.02655C7.51755 8.51195 4.78389 11.3289 1.249 12.2361L0 12.5464V24.2678H1.88528V14.0265C6.00932 12.9045 9.23786 9.56234 10.1098 5.43238C10.1334 5.28915 10.1569 5.14591 10.2041 5.00268C10.2276 4.85944 10.2512 4.71621 10.2748 4.57297L10.4162 3.61807C10.4397 3.35547 10.5811 3.14062 10.7932 2.99738C11.0053 2.85415 11.241 2.78253 11.5002 2.8064C12.0186 2.87802 12.3721 3.35547 12.3014 3.88067L12.1836 4.8117C11.6887 7.58092 11.0053 9.18038 10.8875 9.49072L10.8168 9.6817V10.9231H16.8261C17.2503 10.9231 17.6509 11.1141 17.9101 11.4244C18.1694 11.7586 18.2872 12.1883 18.2165 12.5942L16.614 21.1883Z" fill="black"/>
</svg>
