<svg width="23" height="23" viewBox="0 0 23 23" fill="none" xmlns="http://www.w3.org/2000/svg">
<path d="M12.1174 6.27259L12.1174 6.27258C11.9806 6.22041 11.8641 6.13058 11.7789 6.01674C11.7789 6.01666 11.7788 6.01658 11.7787 6.01651L11.4996 5.64363L11.2205 6.01651C11.2205 6.01658 11.2204 6.01666 11.2203 6.01674C11.1351 6.13058 11.0186 6.22041 10.8819 6.27258L10.8819 6.27259L10.4178 6.44965L10.7031 6.89271L12.1174 6.27259ZM12.1174 6.27259L12.5815 6.44965L12.2962 6.89271C12.2961 6.89277 12.2961 6.89283 12.296 6.89288C12.296 6.89294 12.296 6.893 12.2959 6.89306C12.2195 7.01163 12.1775 7.14821 12.1727 7.28753C12.1727 7.2876 12.1727 7.28767 12.1727 7.28774C12.1727 7.28784 12.1727 7.28793 12.1727 7.28802L12.1554 7.7958L11.7155 7.66435L11.7152 7.66426M12.1174 6.27259L11.7152 7.66426M11.7152 7.66426C11.5744 7.62227 11.4248 7.62227 11.284 7.66426L11.2837 7.66435M11.7152 7.66426L11.2837 7.66435M11.2837 7.66435L10.8439 7.7958M11.2837 7.66435L10.8439 7.7958M10.8439 7.7958L10.8265 7.28802L10.8439 7.7958Z" fill="white" stroke="black" stroke-width="1.11897"/>
<mask id="path-2-inside-1_1401_1664" fill="white">
<path fill-rule="evenodd" clip-rule="evenodd" d="M3.58254 1.38224C3.58254 0.618851 4.20139 0 4.96477 0H18.0351C18.7942 0 19.4174 0.611854 19.4174 1.37951V1.3904V1.40132V1.41225V1.42319V1.43416V1.44512V1.4561V1.4671V1.4781V1.48912V1.50015V1.51119V1.52223V1.5333V1.54439V1.55547V1.56657V1.57768V1.58881V1.59994V1.6111V1.62225V1.63343V1.64461V1.65581V1.66702V1.67823V1.68946V1.7007V1.71195V1.72323V1.7345V1.74579V1.75709V1.7684V1.77972V1.79106V1.8024V1.81375V1.82512V1.83651V1.8479V1.85929V1.87071V1.88213V1.89357V1.90501V1.91647V1.92794V1.93942V1.95091V1.96241V1.97392V1.98544V1.99697V2.00852V2.02008V2.03164V2.04322V2.0548V2.0664V2.07801V2.08963V2.10125V2.11289V2.12454V2.13621V2.14788V2.15956V2.17125V2.18296V2.19467V2.20639V2.21812V2.22987V2.24162V2.25339V2.26516V2.27695V2.28874V2.30054V2.31236V2.32418V2.33602V2.34786V2.35971V2.37157V2.38344V2.38838H19.8592C21.5938 2.38838 23 3.79452 23 5.52908V7.08986C23 8.30043 22.3042 9.40324 21.2116 9.9245L18.989 10.9849C18.919 11.0183 18.8464 11.0399 18.7734 11.0505C17.654 13.6459 15.186 15.5231 12.2524 15.7996V17.9128H14.2865C14.9659 17.9128 15.6272 18.1332 16.1708 18.5409L17.4447 19.4963C18.9412 20.6186 18.1473 23 16.2767 23H6.72326C4.85265 23 4.05883 20.6186 5.55535 19.4963L6.82914 18.5409C7.37278 18.1332 8.03401 17.9128 8.71356 17.9128H10.7477V15.7996C7.81397 15.5231 5.34609 13.6459 4.22663 11.0505C4.15364 11.0399 4.081 11.0183 4.01093 10.9849L1.78835 9.9245C0.695748 9.40324 0 8.30043 0 7.08986V5.52908C0 3.79452 1.40614 2.38838 3.1407 2.38838H3.58254V1.38224ZM17.9127 7.91769C17.9127 11.4585 15.043 14.3289 11.5024 14.3302H11.4999C7.9583 14.3302 5.08721 11.4592 5.08721 7.91745V1.50467H17.9127V1.51119V1.52223V1.5333V1.54439V1.55547V1.56657V1.57768V1.58881V1.59994V1.6111V1.62225V1.63343V1.64461V1.65581V1.66702V1.67823V1.68946V1.7007V1.71195V1.72323V1.7345V1.74579V1.75709V1.7684V1.77972V1.79106V1.8024V1.81375V1.82512V1.83651V1.8479V1.85929V1.87071V1.88213V1.89357V1.90501V1.91647V1.92794V1.93942V1.95091V1.96241V1.97392V1.98544V1.99697V2.00852V2.02008V2.03164V2.04322V2.0548V2.0664V2.07801V2.08963V2.10125V2.11289V2.12454V2.13621V2.14788V2.15956V2.17125V2.18296V2.19467V2.20639V2.21812V2.22987V2.24162V2.25339V2.26516V2.27695V2.28874V2.30054V2.31236V2.32418V2.33602V2.34786V2.35971V2.37157V2.38344V2.39533V2.40722V2.41913V2.43104V2.44297V2.4549V2.46684V2.47879V2.49075V2.50271V2.5147V2.52669V2.53868V2.55069V2.5627V2.57473V2.58677V2.59882V2.61088V2.62293V2.635V2.64708V2.65918V2.67128V2.68339V2.69551V2.70764V2.71977V2.73192V2.74407V2.75624V2.7684V2.78059V2.79278V2.80498V2.81719V2.8294V2.84163V2.85386V2.8661V2.87835V2.89061V2.90288V2.91515V2.92744V2.93973V2.95203V2.96434V2.97666V2.98899V3.00132V3.01367V3.02602V3.03837V3.05075V3.06312V3.0755V3.08789V3.10029V3.11271V3.12512V3.13754V3.14997V3.16241V3.17486V3.18732V3.19978V3.21225V3.22473V3.23722V3.24971V3.26221V3.27472V3.28724V3.29976V3.31229V3.32483V3.33739V3.34994V3.36249V3.37507V3.38764V3.40023V3.41282V3.42542V3.43803V3.45063V3.46326V3.47588V3.48852V3.50116V3.51381V3.52647V3.53913V3.5518V3.56447V3.57716V3.58985V3.60254V3.61525V3.62796V3.64067V3.6534V3.66614V3.67887V3.69162V3.70436V3.71712V3.72989V3.74266V3.75544V3.76822V3.78101V3.79381V3.80661V3.81942V3.83223V3.84505V3.85788V3.87072V3.88355V3.8964V3.90925V3.92211V3.93498V3.94784V3.96072V3.9736V3.98649V3.99939V4.01229V4.02519V4.0381V4.05102V4.06395V4.07688V4.08981V4.10275V4.1157V4.12865V4.14161V4.15457V4.16754V4.18051V4.19349V4.20647V4.21947V4.23246V4.24547V4.25847V4.27149V4.2845V4.29752V4.31054V4.32358V4.33662V4.34967V4.36271V4.37576V4.38882V4.40188V4.41495V4.42802V4.4411V4.45418V4.46727V4.48036V4.49346V4.50656V4.51966V4.53277V4.54589V4.55901V4.57213V4.58526V4.5984V4.61153V4.62468V4.63782V4.65098V4.66413V4.6773V4.69045V4.70363V4.71679V4.72997V4.74316V4.75635V4.76953V4.78273V4.79593V4.80913V4.82234V4.83555V4.84875V4.86197V4.87519V4.88842V4.90165V4.91488V4.92811V4.94136V4.95461V4.96785V4.9811V4.99436V5.00762V5.02088V5.03415V5.04741V5.06069V5.07397V5.08724V5.10053V5.11381V5.12711V5.1404V5.1537V5.16699V5.1803V5.1936V5.20691V5.22023V5.23354V5.24686V5.26019V5.2735V5.28683V5.30017V5.31349V5.32683V5.34017V5.35352V5.36686V5.3802V5.39355V5.40691V5.42026V5.43362V5.44698V5.46035V5.47371V5.48708V5.50045V5.51382V5.5272V5.54057V5.55395V5.56734V5.58072V5.59411V5.6075V5.62089V5.63428V5.64768V5.66107V5.67448V5.68788V5.70128V5.71469V5.7281V5.74151V5.75492V5.76833V5.78175V5.79517V5.80859V5.82201V5.83543V5.84886V5.86228V5.8757V5.88914V5.90256V5.916V5.92943V5.94287V5.9563V5.96975V5.98318V5.99663V6.01007V6.02351V6.03695V6.0504V6.06385V6.0773V6.09074V6.1042V6.11764V6.1311V6.14456V6.15801V6.17147V6.18493V6.19838V6.21184V6.2253V6.23876V6.25222V6.26568V6.27914V6.29261V6.30607V6.31954V6.33301V6.34646V6.35993V6.3734V6.38686V6.40034V6.41381V6.42727V6.44074V6.45421V6.46767V6.48115V6.49462V6.50809V6.52156V6.53503V6.5485V6.56197V6.57544V6.58892V6.60239V6.61585V6.62933V6.6428V6.65626V6.66974V6.68321V6.69667V6.71015V6.72362V6.73709V6.75055V6.76403V6.7775V6.79096V6.80443V6.8179V6.83137V6.84483V6.8583V6.87175V6.88522V6.89869V6.91214V6.92561V6.93907V6.95253V6.96599V6.97945V6.99291V7.00637V7.01983V7.03328V7.04673V7.06018V7.07364V7.08708V7.10054V7.11399V7.12743V7.14088V7.15432V7.16777V7.18121V7.19466V7.20809V7.22154V7.23497V7.24841V7.26184V7.27528V7.2887V7.30213V7.31556V7.32898V7.34242V7.35583V7.36925V7.38268V7.39609V7.40951V7.42293V7.43634V7.44974V7.46316V7.47656V7.48997V7.50336V7.51677V7.53017V7.54356V7.55696V7.57035V7.58374V7.59713V7.61052V7.6239V7.63728V7.65066V7.66403V7.67741V7.69078V7.70414V7.71751V7.73087V7.74424V7.7576V7.77095V7.78431V7.79766V7.811V7.82434V7.83769V7.85103V7.86437V7.8777V7.89103V7.90436V7.91769ZM19.3205 9.15952L20.5637 8.56646C21.1328 8.29493 21.4953 7.72047 21.4953 7.08986V5.52908C21.4953 4.62553 20.7628 3.89305 19.8592 3.89305H19.4174V3.8964V3.90925V3.92211V3.93498V3.94784V3.96072V3.9736V3.98649V3.99939V4.01229V4.02519V4.0381V4.05102V4.06395V4.07688V4.08981V4.10275V4.1157V4.12865V4.14161V4.15457V4.16754V4.18051V4.19349V4.20647V4.21947V4.23246V4.24547V4.25847V4.27149V4.2845V4.29752V4.31054V4.32358V4.33662V4.34967V4.36271V4.37576V4.38882V4.40188V4.41495V4.42802V4.4411V4.45418V4.46727V4.48036V4.49346V4.50656V4.51966V4.53277V4.54589V4.55901V4.57213V4.58526V4.5984V4.61153V4.62468V4.63782V4.65098V4.66413V4.6773V4.69045V4.70363V4.71679V4.72997V4.74316V4.75635V4.76953V4.78273V4.79593V4.80913V4.82234V4.83555V4.84875V4.86197V4.87519V4.88842V4.90165V4.91488V4.92811V4.94136V4.95461V4.96785V4.9811V4.99436V5.00762V5.02088V5.03415V5.04741V5.06069V5.07397V5.08724V5.10053V5.11381V5.12711V5.1404V5.1537V5.16699V5.1803V5.1936V5.20691V5.22023V5.23354V5.24686V5.26019V5.2735V5.28683V5.30017V5.31349V5.32683V5.34017V5.35352V5.36686V5.3802V5.39355V5.40691V5.42026V5.43362V5.44698V5.46035V5.47371V5.48708V5.50045V5.51382V5.5272V5.54057V5.55395V5.56734V5.58072V5.59411V5.6075V5.62089V5.63428V5.64768V5.66107V5.67448V5.68788V5.70128V5.71469V5.7281V5.74151V5.75492V5.76833V5.78175V5.79517V5.80859V5.82201V5.83543V5.84886V5.86228V5.8757V5.88914V5.90256V5.916V5.92943V5.94287V5.9563V5.96975V5.98318V5.99663V6.01007V6.02351V6.03695V6.0504V6.06385V6.0773V6.09074V6.1042V6.11764V6.1311V6.14456V6.15801V6.17147V6.18493V6.19838V6.21184V6.2253V6.23876V6.25222V6.26568V6.27914V6.29261V6.30607V6.31954V6.33301V6.34646V6.35993V6.3734V6.38686V6.40034V6.41381V6.42727V6.44074V6.45421V6.46767V6.48115V6.49462V6.50809V6.52156V6.53503V6.5485V6.56197V6.57544V6.58892V6.60239V6.61585V6.62933V6.6428V6.65626V6.66974V6.68321V6.69667V6.71015V6.72362V6.73709V6.75055V6.76403V6.7775V6.79096V6.80443V6.8179V6.83137V6.84483V6.8583V6.87175V6.88522V6.89869V6.91214V6.92561V6.93907V6.95253V6.96599V6.97945V6.99291V7.00637V7.01983V7.03328V7.04673V7.06018V7.07364V7.08708V7.10054V7.11399V7.12743V7.14088V7.15432V7.16777V7.18121V7.19466V7.20809V7.22154V7.23497V7.24841V7.26184V7.27528V7.2887V7.30213V7.31556V7.32898V7.34242V7.35583V7.36925V7.38268V7.39609V7.40951V7.42293V7.43634V7.44974V7.46316V7.47656V7.48997V7.50336V7.51677V7.53017V7.54356V7.55696V7.57035V7.58374V7.59713V7.61052V7.6239V7.63728V7.65066V7.66403V7.67741V7.69078V7.70414V7.71751V7.73087V7.74424V7.7576V7.77095V7.78431V7.79766V7.811V7.82434V7.83769V7.85103V7.86437V7.8777V7.89103V7.90436V7.91769C19.4174 8.34019 19.3843 8.75495 19.3205 9.15952ZM3.58254 7.91745C3.58254 8.34002 3.61566 8.75488 3.67941 9.15954L2.43624 8.56646C1.8671 8.29493 1.50467 7.72047 1.50467 7.08986V5.52908C1.50467 4.62553 2.23714 3.89305 3.1407 3.89305H3.58254V7.91745ZM7.73194 19.7446C8.01514 19.5323 8.35957 19.4175 8.71356 19.4175H11.5H14.2865C14.6404 19.4175 14.9848 19.5323 15.268 19.7446L16.5419 20.7C16.8815 20.9548 16.7013 21.4953 16.2767 21.4953H6.72326C6.29863 21.4953 6.11846 20.9548 6.45815 20.7L7.73194 19.7446Z"/>
</mask>
<path fill-rule="evenodd" clip-rule="evenodd" d="M3.58254 1.38224C3.58254 0.618851 4.20139 0 4.96477 0H18.0351C18.7942 0 19.4174 0.611854 19.4174 1.37951V1.3904V1.40132V1.41225V1.42319V1.43416V1.44512V1.4561V1.4671V1.4781V1.48912V1.50015V1.51119V1.52223V1.5333V1.54439V1.55547V1.56657V1.57768V1.58881V1.59994V1.6111V1.62225V1.63343V1.64461V1.65581V1.66702V1.67823V1.68946V1.7007V1.71195V1.72323V1.7345V1.74579V1.75709V1.7684V1.77972V1.79106V1.8024V1.81375V1.82512V1.83651V1.8479V1.85929V1.87071V1.88213V1.89357V1.90501V1.91647V1.92794V1.93942V1.95091V1.96241V1.97392V1.98544V1.99697V2.00852V2.02008V2.03164V2.04322V2.0548V2.0664V2.07801V2.08963V2.10125V2.11289V2.12454V2.13621V2.14788V2.15956V2.17125V2.18296V2.19467V2.20639V2.21812V2.22987V2.24162V2.25339V2.26516V2.27695V2.28874V2.30054V2.31236V2.32418V2.33602V2.34786V2.35971V2.37157V2.38344V2.38838H19.8592C21.5938 2.38838 23 3.79452 23 5.52908V7.08986C23 8.30043 22.3042 9.40324 21.2116 9.9245L18.989 10.9849C18.919 11.0183 18.8464 11.0399 18.7734 11.0505C17.654 13.6459 15.186 15.5231 12.2524 15.7996V17.9128H14.2865C14.9659 17.9128 15.6272 18.1332 16.1708 18.5409L17.4447 19.4963C18.9412 20.6186 18.1473 23 16.2767 23H6.72326C4.85265 23 4.05883 20.6186 5.55535 19.4963L6.82914 18.5409C7.37278 18.1332 8.03401 17.9128 8.71356 17.9128H10.7477V15.7996C7.81397 15.5231 5.34609 13.6459 4.22663 11.0505C4.15364 11.0399 4.081 11.0183 4.01093 10.9849L1.78835 9.9245C0.695748 9.40324 0 8.30043 0 7.08986V5.52908C0 3.79452 1.40614 2.38838 3.1407 2.38838H3.58254V1.38224ZM17.9127 7.91769C17.9127 11.4585 15.043 14.3289 11.5024 14.3302H11.4999C7.9583 14.3302 5.08721 11.4592 5.08721 7.91745V1.50467H17.9127V1.51119V1.52223V1.5333V1.54439V1.55547V1.56657V1.57768V1.58881V1.59994V1.6111V1.62225V1.63343V1.64461V1.65581V1.66702V1.67823V1.68946V1.7007V1.71195V1.72323V1.7345V1.74579V1.75709V1.7684V1.77972V1.79106V1.8024V1.81375V1.82512V1.83651V1.8479V1.85929V1.87071V1.88213V1.89357V1.90501V1.91647V1.92794V1.93942V1.95091V1.96241V1.97392V1.98544V1.99697V2.00852V2.02008V2.03164V2.04322V2.0548V2.0664V2.07801V2.08963V2.10125V2.11289V2.12454V2.13621V2.14788V2.15956V2.17125V2.18296V2.19467V2.20639V2.21812V2.22987V2.24162V2.25339V2.26516V2.27695V2.28874V2.30054V2.31236V2.32418V2.33602V2.34786V2.35971V2.37157V2.38344V2.39533V2.40722V2.41913V2.43104V2.44297V2.4549V2.46684V2.47879V2.49075V2.50271V2.5147V2.52669V2.53868V2.55069V2.5627V2.57473V2.58677V2.59882V2.61088V2.62293V2.635V2.64708V2.65918V2.67128V2.68339V2.69551V2.70764V2.71977V2.73192V2.74407V2.75624V2.7684V2.78059V2.79278V2.80498V2.81719V2.8294V2.84163V2.85386V2.8661V2.87835V2.89061V2.90288V2.91515V2.92744V2.93973V2.95203V2.96434V2.97666V2.98899V3.00132V3.01367V3.02602V3.03837V3.05075V3.06312V3.0755V3.08789V3.10029V3.11271V3.12512V3.13754V3.14997V3.16241V3.17486V3.18732V3.19978V3.21225V3.22473V3.23722V3.24971V3.26221V3.27472V3.28724V3.29976V3.31229V3.32483V3.33739V3.34994V3.36249V3.37507V3.38764V3.40023V3.41282V3.42542V3.43803V3.45063V3.46326V3.47588V3.48852V3.50116V3.51381V3.52647V3.53913V3.5518V3.56447V3.57716V3.58985V3.60254V3.61525V3.62796V3.64067V3.6534V3.66614V3.67887V3.69162V3.70436V3.71712V3.72989V3.74266V3.75544V3.76822V3.78101V3.79381V3.80661V3.81942V3.83223V3.84505V3.85788V3.87072V3.88355V3.8964V3.90925V3.92211V3.93498V3.94784V3.96072V3.9736V3.98649V3.99939V4.01229V4.02519V4.0381V4.05102V4.06395V4.07688V4.08981V4.10275V4.1157V4.12865V4.14161V4.15457V4.16754V4.18051V4.19349V4.20647V4.21947V4.23246V4.24547V4.25847V4.27149V4.2845V4.29752V4.31054V4.32358V4.33662V4.34967V4.36271V4.37576V4.38882V4.40188V4.41495V4.42802V4.4411V4.45418V4.46727V4.48036V4.49346V4.50656V4.51966V4.53277V4.54589V4.55901V4.57213V4.58526V4.5984V4.61153V4.62468V4.63782V4.65098V4.66413V4.6773V4.69045V4.70363V4.71679V4.72997V4.74316V4.75635V4.76953V4.78273V4.79593V4.80913V4.82234V4.83555V4.84875V4.86197V4.87519V4.88842V4.90165V4.91488V4.92811V4.94136V4.95461V4.96785V4.9811V4.99436V5.00762V5.02088V5.03415V5.04741V5.06069V5.07397V5.08724V5.10053V5.11381V5.12711V5.1404V5.1537V5.16699V5.1803V5.1936V5.20691V5.22023V5.23354V5.24686V5.26019V5.2735V5.28683V5.30017V5.31349V5.32683V5.34017V5.35352V5.36686V5.3802V5.39355V5.40691V5.42026V5.43362V5.44698V5.46035V5.47371V5.48708V5.50045V5.51382V5.5272V5.54057V5.55395V5.56734V5.58072V5.59411V5.6075V5.62089V5.63428V5.64768V5.66107V5.67448V5.68788V5.70128V5.71469V5.7281V5.74151V5.75492V5.76833V5.78175V5.79517V5.80859V5.82201V5.83543V5.84886V5.86228V5.8757V5.88914V5.90256V5.916V5.92943V5.94287V5.9563V5.96975V5.98318V5.99663V6.01007V6.02351V6.03695V6.0504V6.06385V6.0773V6.09074V6.1042V6.11764V6.1311V6.14456V6.15801V6.17147V6.18493V6.19838V6.21184V6.2253V6.23876V6.25222V6.26568V6.27914V6.29261V6.30607V6.31954V6.33301V6.34646V6.35993V6.3734V6.38686V6.40034V6.41381V6.42727V6.44074V6.45421V6.46767V6.48115V6.49462V6.50809V6.52156V6.53503V6.5485V6.56197V6.57544V6.58892V6.60239V6.61585V6.62933V6.6428V6.65626V6.66974V6.68321V6.69667V6.71015V6.72362V6.73709V6.75055V6.76403V6.7775V6.79096V6.80443V6.8179V6.83137V6.84483V6.8583V6.87175V6.88522V6.89869V6.91214V6.92561V6.93907V6.95253V6.96599V6.97945V6.99291V7.00637V7.01983V7.03328V7.04673V7.06018V7.07364V7.08708V7.10054V7.11399V7.12743V7.14088V7.15432V7.16777V7.18121V7.19466V7.20809V7.22154V7.23497V7.24841V7.26184V7.27528V7.2887V7.30213V7.31556V7.32898V7.34242V7.35583V7.36925V7.38268V7.39609V7.40951V7.42293V7.43634V7.44974V7.46316V7.47656V7.48997V7.50336V7.51677V7.53017V7.54356V7.55696V7.57035V7.58374V7.59713V7.61052V7.6239V7.63728V7.65066V7.66403V7.67741V7.69078V7.70414V7.71751V7.73087V7.74424V7.7576V7.77095V7.78431V7.79766V7.811V7.82434V7.83769V7.85103V7.86437V7.8777V7.89103V7.90436V7.91769ZM19.3205 9.15952L20.5637 8.56646C21.1328 8.29493 21.4953 7.72047 21.4953 7.08986V5.52908C21.4953 4.62553 20.7628 3.89305 19.8592 3.89305H19.4174V3.8964V3.90925V3.92211V3.93498V3.94784V3.96072V3.9736V3.98649V3.99939V4.01229V4.02519V4.0381V4.05102V4.06395V4.07688V4.08981V4.10275V4.1157V4.12865V4.14161V4.15457V4.16754V4.18051V4.19349V4.20647V4.21947V4.23246V4.24547V4.25847V4.27149V4.2845V4.29752V4.31054V4.32358V4.33662V4.34967V4.36271V4.37576V4.38882V4.40188V4.41495V4.42802V4.4411V4.45418V4.46727V4.48036V4.49346V4.50656V4.51966V4.53277V4.54589V4.55901V4.57213V4.58526V4.5984V4.61153V4.62468V4.63782V4.65098V4.66413V4.6773V4.69045V4.70363V4.71679V4.72997V4.74316V4.75635V4.76953V4.78273V4.79593V4.80913V4.82234V4.83555V4.84875V4.86197V4.87519V4.88842V4.90165V4.91488V4.92811V4.94136V4.95461V4.96785V4.9811V4.99436V5.00762V5.02088V5.03415V5.04741V5.06069V5.07397V5.08724V5.10053V5.11381V5.12711V5.1404V5.1537V5.16699V5.1803V5.1936V5.20691V5.22023V5.23354V5.24686V5.26019V5.2735V5.28683V5.30017V5.31349V5.32683V5.34017V5.35352V5.36686V5.3802V5.39355V5.40691V5.42026V5.43362V5.44698V5.46035V5.47371V5.48708V5.50045V5.51382V5.5272V5.54057V5.55395V5.56734V5.58072V5.59411V5.6075V5.62089V5.63428V5.64768V5.66107V5.67448V5.68788V5.70128V5.71469V5.7281V5.74151V5.75492V5.76833V5.78175V5.79517V5.80859V5.82201V5.83543V5.84886V5.86228V5.8757V5.88914V5.90256V5.916V5.92943V5.94287V5.9563V5.96975V5.98318V5.99663V6.01007V6.02351V6.03695V6.0504V6.06385V6.0773V6.09074V6.1042V6.11764V6.1311V6.14456V6.15801V6.17147V6.18493V6.19838V6.21184V6.2253V6.23876V6.25222V6.26568V6.27914V6.29261V6.30607V6.31954V6.33301V6.34646V6.35993V6.3734V6.38686V6.40034V6.41381V6.42727V6.44074V6.45421V6.46767V6.48115V6.49462V6.50809V6.52156V6.53503V6.5485V6.56197V6.57544V6.58892V6.60239V6.61585V6.62933V6.6428V6.65626V6.66974V6.68321V6.69667V6.71015V6.72362V6.73709V6.75055V6.76403V6.7775V6.79096V6.80443V6.8179V6.83137V6.84483V6.8583V6.87175V6.88522V6.89869V6.91214V6.92561V6.93907V6.95253V6.96599V6.97945V6.99291V7.00637V7.01983V7.03328V7.04673V7.06018V7.07364V7.08708V7.10054V7.11399V7.12743V7.14088V7.15432V7.16777V7.18121V7.19466V7.20809V7.22154V7.23497V7.24841V7.26184V7.27528V7.2887V7.30213V7.31556V7.32898V7.34242V7.35583V7.36925V7.38268V7.39609V7.40951V7.42293V7.43634V7.44974V7.46316V7.47656V7.48997V7.50336V7.51677V7.53017V7.54356V7.55696V7.57035V7.58374V7.59713V7.61052V7.6239V7.63728V7.65066V7.66403V7.67741V7.69078V7.70414V7.71751V7.73087V7.74424V7.7576V7.77095V7.78431V7.79766V7.811V7.82434V7.83769V7.85103V7.86437V7.8777V7.89103V7.90436V7.91769C19.4174 8.34019 19.3843 8.75495 19.3205 9.15952ZM3.58254 7.91745C3.58254 8.34002 3.61566 8.75488 3.67941 9.15954L2.43624 8.56646C1.8671 8.29493 1.50467 7.72047 1.50467 7.08986V5.52908C1.50467 4.62553 2.23714 3.89305 3.1407 3.89305H3.58254V7.91745ZM7.73194 19.7446C8.01514 19.5323 8.35957 19.4175 8.71356 19.4175H11.5H14.2865C14.6404 19.4175 14.9848 19.5323 15.268 19.7446L16.5419 20.7C16.8815 20.9548 16.7013 21.4953 16.2767 21.4953H6.72326C6.29863 21.4953 6.11846 20.9548 6.45815 20.7L7.73194 19.7446Z" fill="white" stroke="black" stroke-width="2.23794" mask="url(#path-2-inside-1_1401_1664)"/>
</svg>
