<svg width="23" height="21" viewBox="0 0 23 21" fill="none" xmlns="http://www.w3.org/2000/svg">
<path d="M11.3278 20.0134C11.2241 20.0118 11.1225 19.9837 11.0327 19.9318C10.9207 19.8808 8.39705 18.4429 5.83264 16.1382C2.32185 12.9666 0.541017 9.81545 0.541017 6.75606C0.540094 5.49027 0.944398 4.25757 1.6945 3.23915C2.4446 2.22074 3.50093 1.47033 4.70821 1.09824C5.91549 0.726152 7.21005 0.752003 8.40158 1.172C9.59311 1.59199 10.6188 2.38397 11.3278 3.43152C12.0368 2.38397 13.0625 1.59199 14.254 1.172C15.4455 0.752003 16.7401 0.726152 17.9474 1.09824C19.1547 1.47033 20.211 2.22074 20.9611 3.23915C21.7112 4.25757 22.1155 5.49027 22.1146 6.75606C22.1146 9.81545 20.3337 12.9666 16.8229 16.1382C14.2585 18.4429 11.7348 19.8808 11.6229 19.9318C11.533 19.9837 11.4315 20.0118 11.3278 20.0134ZM6.44322 2.06499C5.20172 2.06499 4.01108 2.55923 3.13321 3.43897C2.25534 4.31872 1.76216 5.51191 1.76216 6.75606C1.76216 12.5995 9.67925 17.6985 11.3278 18.6877C12.9763 17.6985 20.8934 12.5995 20.8934 6.75606C20.8958 5.66984 20.5219 4.61646 19.8357 3.77569C19.1494 2.93491 18.1933 2.35886 17.1304 2.14584C16.0676 1.93281 14.9639 2.09602 14.0077 2.6076C13.0516 3.11919 12.3022 3.94744 11.8875 4.95102C11.8437 5.06409 11.7668 5.16125 11.6669 5.22976C11.567 5.29827 11.4488 5.33493 11.3278 5.33493C11.2068 5.33493 11.0886 5.29827 10.9887 5.22976C10.8888 5.16125 10.8119 5.06409 10.7681 4.95102C10.4123 4.09565 9.81163 3.36507 9.04192 2.85144C8.27222 2.33781 7.36795 2.06415 6.44322 2.06499Z" fill="black"/>
</svg>
