<svg width="21" height="24" viewBox="0 0 21 24" fill="none" xmlns="http://www.w3.org/2000/svg">
<path d="M15.0844 4.40723C15.0065 4.36444 14.9135 4.33891 14.8145 4.33891C14.5015 4.33891 14.2475 4.59114 14.2475 4.90192C14.2475 5.11437 14.3662 5.29978 14.5416 5.39512L14.5446 5.39662C17.3343 6.9205 19.1933 9.82037 19.1933 13.1504C19.1933 18.0215 15.216 21.9709 10.3102 21.9709C5.40453 21.9709 1.4272 18.0215 1.4272 13.1504C1.4272 9.83163 3.2726 6.94152 6.00026 5.43566L6.04562 5.41239C6.22102 5.3148 6.3382 5.13088 6.3382 4.91994C6.3382 4.60916 6.08418 4.35693 5.77119 4.35693C5.67216 4.35693 5.57841 4.38245 5.49752 4.42674L5.50054 4.42524C2.37447 6.1488 0.293945 9.40825 0.293945 13.1496C0.293945 18.6424 4.77856 23.0954 10.3102 23.0954C15.8419 23.0954 20.3265 18.6424 20.3265 13.1496C20.3265 9.39399 18.2301 6.12478 15.1366 4.432L15.0852 4.40573L15.0844 4.40723ZM10.2717 11.11C10.5847 11.11 10.8387 10.8578 10.8387 10.547V1.51711C10.8387 1.20633 10.5847 0.954102 10.2717 0.954102C9.9587 0.954102 9.70468 1.20633 9.70468 1.51711V10.547C9.70468 10.8578 9.9587 11.11 10.2717 11.11Z" fill="#080808"/>
</svg>
