<svg width="27" height="27" viewBox="0 0 27 27" fill="none" xmlns="http://www.w3.org/2000/svg">
<path d="M25 23.5L23.3402 18.6314C24.7747 16.557 25.2937 14.1004 24.8005 11.7184C24.3074 9.33639 22.8358 7.19107 20.6592 5.68131C18.4827 4.17155 15.7494 3.4001 12.9675 3.51038C10.1856 3.62066 7.54441 4.60518 5.53506 6.28088C3.52571 7.95658 2.28489 10.2094 2.04333 12.6206C1.80177 15.0317 2.5759 17.437 4.22178 19.3893C5.86766 21.3416 8.27328 22.7081 10.9914 23.2345C13.7095 23.761 16.5551 23.4117 18.9991 22.2516L25 23.5Z" stroke="black" stroke-width="1.4" stroke-linecap="round" stroke-linejoin="round"/>
<path d="M9 16.9024L10.5808 11.1463L13.0719 13.6829L17 11L15.4192 17" stroke="black" stroke-width="1.2"/>
</svg>
