<svg width="20" height="21" viewBox="0 0 20 21" fill="none" xmlns="http://www.w3.org/2000/svg">
<path d="M16.4283 19.7321H16.9417C16.8028 19.8749 16.6178 19.9522 16.4283 19.9522H3.58687C3.39735 19.9522 3.21234 19.8749 3.07346 19.7321H3.58687H7.4393H7.98964V19.1818V14.4488H8.17309V19.1818V19.7321H8.72344H16.4283ZM17.1621 19.1818C17.1621 19.3718 17.0953 19.5523 16.9786 19.6912V19.1818V14.4488H17.1621V19.1818ZM2.85308 19.1818V14.4488H3.03653V19.1818V19.6912C2.91986 19.5523 2.85308 19.3718 2.85308 19.1818Z" stroke="#080707" stroke-width="1.10069"/>
<path d="M19.2826 7.34042C19.2826 7.34041 19.2826 7.3404 19.2825 7.34039L16.7567 1.77377L16.7562 1.7726C16.693 1.63246 16.599 1.52206 16.4911 1.44832C16.3839 1.37507 16.2657 1.33951 16.1495 1.33941H3.86609C3.74986 1.33951 3.6317 1.37507 3.52451 1.44832C3.4166 1.52206 3.32257 1.63246 3.25937 1.7726L3.25885 1.77377L0.733029 7.34039C0.732995 7.34046 0.732962 7.34054 0.732928 7.34061C0.67985 7.45805 0.651432 7.5901 0.651914 7.72566L0.651921 7.72761L0.651918 9.82897V9.82994C0.651559 10.0317 0.714941 10.2211 0.822476 10.3665C1.04633 10.6475 1.31892 10.8687 1.61971 11.0185C1.9223 11.1692 2.24805 11.2451 2.57542 11.2435L2.57907 11.2435C3.11341 11.2444 3.63961 11.0413 4.06659 10.6555L4.43565 10.3221L4.80461 10.6556C5.2318 11.0418 5.75818 11.2456 6.29296 11.2456C6.82773 11.2456 7.35411 11.0418 7.78131 10.6556L8.15037 10.322L8.51944 10.6556C8.94663 11.0418 9.47301 11.2456 10.0078 11.2456C10.5426 11.2456 11.0689 11.0418 11.4961 10.6556L11.8652 10.322L12.2343 10.6556C12.6615 11.0418 13.1878 11.2456 13.7226 11.2456C14.2574 11.2456 14.7838 11.0418 15.211 10.6556L15.5802 10.3218L15.9493 10.6558C16.4256 11.0867 17.0239 11.2891 17.6184 11.2369C18.2113 11.1849 18.7764 10.8815 19.1894 10.3701M19.1894 10.3701C19.1881 10.3717 19.1869 10.3733 19.1857 10.375L19.623 10.7091L19.1939 10.3645C19.1924 10.3664 19.1909 10.3682 19.1894 10.3701ZM19.914 9.83579V7.72761C19.9148 7.51456 19.8702 7.30427 19.784 7.11358L19.914 9.83579Z" stroke="#080707" stroke-width="1.10069"/>
</svg>
