<svg width="25" height="22" viewBox="0 0 25 22" fill="none" xmlns="http://www.w3.org/2000/svg">
<path d="M15.4466 1H9.66795C5.58184 1 3.53878 1 2.26939 2.22755C1 3.45509 1 5.43078 1 9.38214V12.1763C1 16.1276 1 18.1034 2.26939 19.3309C3.53878 20.5584 5.58184 20.5584 9.66795 20.5584H15.4466C19.5327 20.5584 21.5758 20.5584 22.8452 19.3309C24.1145 18.1034 24.1145 16.1276 24.1145 12.1763V9.38214C24.1145 5.43078 24.1145 3.45509 22.8452 2.22755C21.5758 1 19.5327 1 15.4466 1Z" stroke="black" stroke-width="1.3039"/>
<path d="M6.33398 6.33569H9.89007" stroke="black" stroke-width="1.3039" stroke-linecap="round"/>
<path d="M21.7434 17.0023H19.3727C18.2551 17.0023 17.6963 17.0023 17.3491 16.6117C17.002 16.2212 17.002 15.5925 17.002 14.3353C17.002 13.078 17.002 12.4494 17.3491 12.0588C17.6963 11.6682 18.2551 11.6682 19.3727 11.6682H21.7434C22.861 11.6682 23.4197 11.6682 23.7669 12.0588C24.1141 12.4494 24.1141 13.078 24.1141 14.3353C24.1141 15.5925 24.1141 16.2212 23.7669 16.6117C23.4197 17.0023 22.861 17.0023 21.7434 17.0023Z" stroke="black" stroke-width="1.3039"/>
</svg>
