<svg width="24" height="25" viewBox="0 0 24 25" fill="none" xmlns="http://www.w3.org/2000/svg">
<circle cx="11.6543" cy="12.4951" r="11.5957" fill="#192126"/>
<path d="M5.32812 15.6582H7.43643V17.2394C7.43643 17.5304 7.2003 17.7665 6.90935 17.7665H5.8552C5.56426 17.7665 5.32812 17.5304 5.32812 17.2394V15.6582Z" stroke="white" stroke-width="0.527076"/>
<path d="M15.3281 15.6582H17.4364V17.2394C17.4364 17.5304 17.2003 17.7665 16.9094 17.7665H15.8552C15.5643 17.7665 15.3281 17.5304 15.3281 17.2394V15.6582Z" stroke="white" stroke-width="0.527076"/>
<path d="M7.27425 11.4404H16.0318C17.1066 11.4404 17.978 12.1956 17.978 13.1271V15.2354C17.978 15.4681 17.76 15.657 17.4914 15.657H5.81466C5.54609 15.657 5.32812 15.4681 5.32812 15.2354V13.1271C5.32812 12.1956 6.1995 11.4404 7.27425 11.4404Z" stroke="white" stroke-width="0.527076"/>
<path d="M8.15235 7.22461H15.1548C15.3546 7.22461 15.5333 7.36112 15.6033 7.56668L16.9243 11.4412H6.38281L7.70386 7.56668C7.77381 7.36112 7.95254 7.22461 8.15235 7.22461Z" stroke="white" stroke-width="0.527076"/>
<path d="M9.54688 13.5488H14.8176" stroke="white" stroke-width="0.527076" stroke-linecap="round"/>
</svg>
