<svg width="22" height="22" viewBox="0 0 22 22" fill="none" xmlns="http://www.w3.org/2000/svg">
<path d="M1.20005 6.03597H21.1313M3.51641 1H18.6149C19.2823 1 19.9223 1.26529 20.3942 1.7375C20.8662 2.20971 21.1313 2.85017 21.1313 3.51798V18.6133C21.1313 19.2811 20.8662 19.9216 20.3942 20.3938C19.9223 20.866 19.2823 21.1313 18.6149 21.1313H3.51641C2.84902 21.1313 2.20896 20.866 1.73704 20.3938C1.26512 19.9216 1 19.2811 1 18.6133V3.51798C1 2.85017 1.26512 2.20971 1.73704 1.7375C2.20896 1.26529 2.84902 1 3.51641 1V1Z" stroke="black" stroke-width="1.00656" stroke-linecap="round" stroke-linejoin="round"/>
<path d="M10.0269 15.689C10.0269 15.5481 10.0124 15.41 9.98295 15.277C10.0442 15.4214 10.0826 15.6027 10.0826 15.828C10.0826 16.3859 9.77318 16.8897 9.19966 17.1582C9.29617 17.1016 9.3875 17.0356 9.47234 16.9599C9.83095 16.6403 10.0269 16.189 10.0269 15.689ZM9.45357 11.3655C9.63495 11.5361 9.75569 11.758 9.80238 12.0154C9.72923 11.7564 9.59352 11.5167 9.39324 11.3199C9.37799 11.3049 9.36247 11.2903 9.34669 11.276C9.38526 11.3048 9.42085 11.3347 9.45357 11.3655ZM13.7991 11.1508H14.2656V17.1731H14.236V11.9796V11.3085H13.5954L13.7991 11.1508Z" fill="#17A803" stroke="black" stroke-width="1.34209"/>
</svg>
