<svg width="24" height="25" viewBox="0 0 24 25" fill="none" xmlns="http://www.w3.org/2000/svg">
<circle cx="12.2441" cy="12.4951" r="11.5957" fill="#192126"/>
<path d="M15.695 7.47915C15.6125 7.39822 15.512 7.33373 15.3999 7.28989C15.2878 7.24604 15.1666 7.22381 15.0443 7.22463H8.91612C8.79479 7.22438 8.67474 7.2469 8.5637 7.29074C8.45265 7.33457 8.35307 7.39875 8.27136 7.47915C8.18778 7.55802 8.12313 7.65141 8.08142 7.75356C8.0397 7.85571 8.02181 7.96445 8.02883 8.07304L8.65585 16.5253C8.68124 16.8606 8.8472 17.1749 9.12041 17.4051C9.39362 17.6352 9.75384 17.7642 10.1288 17.7661H13.8317C14.2073 17.7644 14.5683 17.6357 14.8425 17.4056C15.1167 17.1755 15.2838 16.8612 15.3105 16.5253L15.9316 8.07304C15.9394 7.96482 15.9225 7.85631 15.8818 7.75418C15.8411 7.65205 15.7775 7.55846 15.695 7.47915ZM14.719 16.4882C14.7043 16.6904 14.6045 16.8801 14.4398 17.0189C14.2751 17.1577 14.0578 17.2352 13.8317 17.2359H10.1288C9.90364 17.2341 9.68761 17.1561 9.5241 17.0174C9.36059 16.8787 9.26172 16.6896 9.24738 16.4882L8.8688 11.3871C9.11762 11.346 9.35366 11.2574 9.56089 11.1273C9.75947 10.9874 10.0064 10.9143 10.2589 10.9205C10.5132 10.9144 10.7619 10.9874 10.9628 11.1273C11.2624 11.3138 11.6185 11.4137 11.9832 11.4137C12.3479 11.4137 12.704 11.3138 13.0036 11.1273C13.2049 10.9883 13.4534 10.9153 13.7075 10.9205C13.96 10.9143 14.2069 10.9874 14.4055 11.1273C14.6111 11.2565 14.845 11.345 15.0917 11.3871L14.719 16.4882ZM15.1331 10.8569C14.9871 10.8192 14.8492 10.7601 14.7249 10.6819C14.4268 10.4922 14.0702 10.3902 13.7045 10.3902C13.3389 10.3902 12.9823 10.4922 12.6842 10.6819C12.4835 10.8177 12.2375 10.8887 11.9861 10.8834C11.7331 10.8877 11.4856 10.8168 11.2822 10.6819C10.9863 10.4862 10.6266 10.3836 10.2589 10.3903C9.89318 10.3844 9.53555 10.487 9.24146 10.6819C9.11505 10.7601 8.97517 10.8193 8.82739 10.8569L8.62036 8.03592C8.61734 7.99978 8.6232 7.96349 8.6375 7.9296C8.65181 7.8957 8.67423 7.86503 8.70317 7.83973C8.73005 7.81299 8.7629 7.79162 8.79958 7.77701C8.83627 7.76239 8.87598 7.75486 8.91612 7.75489H15.0443C15.0853 7.75535 15.1257 7.76308 15.1633 7.77765C15.2008 7.79221 15.2348 7.81331 15.2632 7.83973C15.2914 7.86533 15.3129 7.89619 15.3261 7.93011C15.3394 7.96403 15.3442 8.00016 15.3401 8.03592L15.1331 10.8569Z" fill="white"/>
</svg>
