<svg width="24" height="25" viewBox="0 0 24 25" fill="none" xmlns="http://www.w3.org/2000/svg">
<circle cx="11.834" cy="12.4951" r="11.5957" fill="#192126"/>
<path d="M8.01559 12.8373H15.6566C15.7849 12.8373 15.9026 12.8844 15.9875 12.9599C16.0723 13.0363 16.1253 13.1401 16.1253 13.2542V13.3505C16.3225 13.3505 16.5346 13.3354 16.6194 13.2269L16.6205 13.2259C16.6587 13.1769 16.5993 13.0976 16.5134 13.0203C16.3745 12.8939 16.1688 12.7797 16.0458 12.7127C16.0373 12.708 16.0288 12.7023 16.0203 12.6967L11.8297 9.69949L7.39316 12.8523C7.38785 12.8561 7.38149 12.8599 7.37513 12.8637C7.19381 12.9797 7.08989 13.0788 7.05066 13.1599C7.03793 13.1844 7.03475 13.2023 7.04005 13.2137C7.04641 13.2297 7.06762 13.2467 7.10155 13.2646C7.19699 13.3146 7.34968 13.3448 7.54585 13.3495V13.2552C7.54585 13.1401 7.59887 13.0354 7.6837 12.9599C7.76959 12.8844 7.88623 12.8373 8.01559 12.8373ZM16.1264 13.7703V17.3486C16.1264 17.4628 16.0733 17.5675 15.9885 17.643C15.9026 17.7184 15.786 17.7656 15.6577 17.7656H8.01559C7.88729 17.7656 7.76959 17.7184 7.68476 17.643L7.6837 17.642C7.59887 17.5665 7.54585 17.4618 7.54585 17.3477V13.7693C7.26485 13.7627 7.02945 13.7118 6.86403 13.625C6.73573 13.558 6.64559 13.4693 6.59894 13.3608C6.55122 13.2476 6.5544 13.124 6.61908 12.992C6.69119 12.8448 6.846 12.6863 7.10049 12.5231L11.5965 9.32873V8.59948C11.5965 8.49476 11.6845 8.40419 11.8043 8.39099C12.3801 8.32872 12.6908 8.07212 12.7926 7.77211C12.8371 7.64287 12.8445 7.50419 12.8191 7.36739C12.7936 7.2306 12.7353 7.09758 12.6484 6.98154C12.4437 6.7089 12.0768 6.52965 11.6039 6.61173C11.4067 6.64569 11.22 6.74758 11.0758 6.90512C10.9348 7.05984 10.833 7.26739 10.7969 7.52022C10.781 7.63438 10.6633 7.71551 10.534 7.70136C10.4057 7.68721 10.3145 7.58249 10.3304 7.46739C10.3781 7.13249 10.517 6.85229 10.71 6.64003C10.9252 6.40418 11.2084 6.25135 11.5127 6.19851C12.1988 6.07965 12.7364 6.34474 13.0386 6.74663C13.1637 6.91267 13.2464 7.1023 13.2825 7.29852C13.3185 7.49475 13.3068 7.69853 13.2411 7.89098C13.1022 8.29759 12.7289 8.64854 12.0662 8.77401V9.32967L16.3013 12.358C16.4445 12.4354 16.6746 12.5656 16.8485 12.724C17.0807 12.9363 17.2111 13.191 17.0054 13.459C16.7923 13.742 16.4349 13.7693 16.1264 13.7703ZM15.7065 13.5854C15.7054 13.5769 15.7043 13.5684 15.7043 13.5599C15.7043 13.5514 15.7054 13.5429 15.7065 13.5344V13.2552C15.7065 13.2429 15.7012 13.2316 15.6927 13.224L15.6916 13.2231C15.6831 13.2156 15.6704 13.2108 15.6566 13.2108H8.01559C8.00181 13.2108 7.98908 13.2156 7.9806 13.224C7.97106 13.2325 7.96576 13.2429 7.96576 13.2552V15.3627H15.7065V13.5854ZM7.96576 16.4043H15.7065V15.7363H7.96576V16.4043ZM15.7065 16.7779H7.96576V17.3486C7.96576 17.3609 7.97106 17.3722 7.9806 17.3807C7.99014 17.3882 8.00181 17.3939 8.01665 17.3939H15.6577C15.6715 17.3939 15.6842 17.3892 15.6927 17.3816L15.6937 17.3807C15.7022 17.3731 15.7075 17.3618 15.7075 17.3496V16.7779H15.7065Z" fill="white"/>
</svg>
