<svg width="5" height="21" viewBox="0 0 5 21" fill="none" xmlns="http://www.w3.org/2000/svg">
<path d="M1.42188 2.12194C1.42188 1.3815 2.04822 0.78125 2.82085 0.78125C3.59349 0.78125 4.21983 1.3815 4.21983 2.12194C4.21983 2.86238 3.59349 3.46262 2.82085 3.46262C2.04822 3.46262 1.42188 2.86238 1.42188 2.12194Z" stroke="white" stroke-width="1.39898" stroke-linecap="round" stroke-linejoin="round"/>
<path d="M1.42188 10.1688C1.42188 9.42837 2.04822 8.82812 2.82085 8.82812C3.59349 8.82812 4.21983 9.42837 4.21983 10.1688C4.21983 10.9093 3.59349 11.5095 2.82085 11.5095C2.04822 11.5095 1.42188 10.9093 1.42188 10.1688Z" stroke="white" stroke-width="1.39898" stroke-linecap="round" stroke-linejoin="round"/>
<path d="M1.42188 18.2118C1.42188 17.4713 2.04822 16.8711 2.82085 16.8711C3.59349 16.8711 4.21983 17.4713 4.21983 18.2118C4.21983 18.9522 3.59349 19.5525 2.82085 19.5525C2.04822 19.5525 1.42188 18.9522 1.42188 18.2118Z" stroke="white" stroke-width="1.39898" stroke-linecap="round" stroke-linejoin="round"/>
</svg>
