<svg width="25" height="25" viewBox="0 0 25 25" fill="none" xmlns="http://www.w3.org/2000/svg">
<circle cx="12.4316" cy="12.4951" r="11.5957" fill="#192126"/>
<path d="M6.42039 12.1849V17.4157H7.67257V12.2228C7.67257 12.207 7.67468 12.1912 7.67889 12.1776C7.88513 11.1779 8.28288 10.5382 8.82584 10.172C9.37301 9.80264 10.0591 9.71846 10.8388 9.83105C10.9261 9.84367 10.9861 9.92365 10.9745 10.011C10.9714 10.032 10.9651 10.051 10.9556 10.0678C10.6389 10.6202 10.501 11.1758 10.5536 11.7335C10.6073 12.2954 10.8546 12.8657 11.307 13.4466C11.3491 13.5002 11.3512 13.5718 11.3186 13.6265C11.2755 13.6991 11.2555 13.7717 11.2576 13.8464C11.2607 13.9222 11.286 14.0032 11.3355 14.0906L11.6185 14.4147C11.6469 14.442 11.6743 14.4567 11.7016 14.4567C11.7406 14.4557 11.79 14.4325 11.8521 14.3831L16.3715 9.81526C16.401 9.77949 16.4136 9.75318 16.4115 9.73529C16.4084 9.71425 16.3873 9.68794 16.3484 9.65637C16.34 9.64901 16.3315 9.64164 16.3252 9.63322L16.3031 9.60587C16.301 9.60271 16.2989 9.59955 16.2968 9.59745C16.0516 9.29756 16.0053 9.24705 15.5424 9.32386C15.4982 9.33123 15.4561 9.31965 15.4224 9.2965C14.811 8.89875 14.2165 8.66515 13.6409 8.61044C13.0706 8.55572 12.5129 8.67778 11.971 8.98819C11.9237 9.01555 11.8679 9.01555 11.8216 8.99346C11.3449 8.79879 10.8819 8.67989 10.4389 8.63148C9.6003 8.53994 8.83741 8.69988 8.20712 9.07448C7.57682 9.44908 7.07489 10.0394 6.75922 10.8075C6.59296 11.2127 6.47827 11.6683 6.42355 12.1681C6.4225 12.1734 6.4225 12.1786 6.42039 12.1849ZM14.6143 13.3656L14.6301 13.3414C14.7132 13.2225 14.8805 13.194 14.9994 13.2782L16.5788 14.381C16.6977 14.4641 16.7261 14.6314 16.642 14.7503L16.6262 14.7745C16.543 14.8934 16.3757 14.9218 16.2568 14.8377L14.6774 13.7338C14.5585 13.6507 14.5311 13.4845 14.6143 13.3656ZM13.2137 14.4252L13.2295 14.401C13.3126 14.2821 13.4799 14.2537 13.5988 14.3378L15.1783 15.4406C15.2972 15.5237 15.3256 15.691 15.2414 15.8099L15.2256 15.8341C15.1425 15.953 14.9752 15.9815 14.8563 15.8973L13.2769 14.7935C13.158 14.7103 13.1306 14.5441 13.2137 14.4252ZM15.7812 12.2228L15.797 12.1986C15.8801 12.0797 16.0474 12.0513 16.1663 12.1355L17.7458 13.2382C17.8647 13.3214 17.8931 13.4887 17.8089 13.6076L17.7931 13.6318C17.71 13.7507 17.5427 13.7791 17.4238 13.6949L15.8443 12.5911C15.7254 12.508 15.6981 12.3417 15.7812 12.2228ZM16.9555 11.0432L16.9713 11.019C17.0544 10.9001 17.2217 10.8717 17.3406 10.9559L18.9201 12.0587C19.039 12.1418 19.0674 12.3091 18.9832 12.428L18.9674 12.4522C18.8843 12.5711 18.717 12.5995 18.5981 12.5153L17.0187 11.4126C16.8998 11.3295 16.8724 11.1632 16.9555 11.0432ZM6.10156 17.5756V12.1544C6.10156 12.1365 6.10472 12.1186 6.10998 12.1018C6.16996 11.5841 6.29097 11.1095 6.46459 10.6844C6.80657 9.84999 7.35374 9.20812 8.04402 8.79774C8.73324 8.38841 9.56347 8.21269 10.4726 8.3116C10.9251 8.36105 11.3965 8.47891 11.8805 8.67147C12.4603 8.35579 13.0569 8.23268 13.6704 8.29161C14.2849 8.35053 14.911 8.59044 15.5497 8.99872C16.1379 8.90612 16.2074 8.98609 16.542 9.39436C16.5441 9.39752 16.5473 9.39962 16.5494 9.40278L16.563 9.41857C16.6577 9.49959 16.7146 9.59008 16.7272 9.69215C16.7419 9.80264 16.7051 9.91207 16.6135 10.0215C16.6104 10.0247 16.6072 10.0278 16.6041 10.032L12.072 14.6125C12.0678 14.6167 12.0636 14.6198 12.0594 14.624C11.9352 14.7251 11.8184 14.7724 11.7069 14.7745C11.5848 14.7766 11.4796 14.7272 11.3891 14.6367C11.387 14.6346 11.3849 14.6314 11.3818 14.6293L11.084 14.2884C11.0777 14.281 11.0713 14.2726 11.0661 14.2642C10.9851 14.1263 10.9419 13.9906 10.9367 13.858C10.9324 13.7559 10.9514 13.657 10.9914 13.5623C10.5389 12.9594 10.2906 12.3607 10.2337 11.764C10.1811 11.2095 10.2937 10.6613 10.5631 10.1194C9.9549 10.0636 9.42457 10.1509 9.00156 10.4361C8.52805 10.756 8.17765 11.3295 7.9893 12.2365V17.5756C7.9893 17.664 7.91775 17.7356 7.82936 17.7356H6.2615C6.17312 17.7356 6.10156 17.664 6.10156 17.5756Z" fill="white"/>
</svg>
